<?xml version="1.0" encoding="utf-8"?>
<!-- Generator: Adobe Illustrator 27.5.0, SVG Export Plug-In . SVG Version: 6.00 Build 0)  -->
<svg version="1.1" id="Layer_1" xmlns="http://www.w3.org/2000/svg" xmlns:xlink="http://www.w3.org/1999/xlink" x="0px" y="0px"
	 viewBox="0 0 500 500" style="enable-background:new 0 0 500 500;" xml:space="preserve">
<g>
	<g>
		<rect x="0.499" y="0.5" style="fill-rule:evenodd;clip-rule:evenodd;fill:#FFFFFF;" width="499.001" height="499"/>
	</g>
	<g>
		<path style="fill:#BFE1FF;" d="M246.699,436.59c-100.286,0-181.875-81.59-181.875-181.876S146.414,72.84,246.699,72.84
			s181.874,81.588,181.874,181.874S346.985,436.59,246.699,436.59z M246.699,74.622c-99.304,0-180.092,80.79-180.092,180.092
			c0,99.304,80.788,180.094,180.092,180.094c99.303,0,180.091-80.79,180.091-180.094C426.79,155.412,346.002,74.622,246.699,74.622z
			"/>
	</g>
	<g>
		
			<ellipse transform="matrix(0.7071 -0.7071 0.7071 0.7071 -103.5537 249.9998)" style="fill-rule:evenodd;clip-rule:evenodd;fill:#BFE1FF;" cx="250" cy="250" rx="180.983" ry="180.983"/>
	</g>
	<g>
		<path style="fill-rule:evenodd;clip-rule:evenodd;fill:#FFFFFF;" d="M41.995,242.162c1.067,0,2.089,0.191,3.034,0.544
			c0.427-0.472,1.043-0.767,1.729-0.767c0.319,0,0.625,0.064,0.901,0.181c0.152-2.013,1.832-3.595,3.881-3.595
			c0.89,0,1.709,0.299,2.365,0.801c0.143-0.196,0.315-0.368,0.511-0.51c-0.373-0.665-0.587-1.43-0.587-2.246
			c0-1.268,0.514-2.414,1.345-3.244c0.83-0.83,1.978-1.345,3.245-1.345h0.015c0.699-0.367,1.493-0.575,2.337-0.575
			c0.516,0,1.016,0.078,1.484,0.224c0.214-0.456,0.573-0.829,1.019-1.061c-0.123-0.57-0.188-1.161-0.188-1.768
			c0-2.301,0.932-4.384,2.44-5.892c1.506-1.508,3.591-2.439,5.891-2.439c0.731,0,1.442,0.094,2.118,0.271
			c4.924,0.072,8.893,4.086,8.893,9.026c0,0.069-0.001,0.14-0.003,0.209c0.437-0.109,0.893-0.17,1.363-0.17
			c0.933,0,1.813,0.232,2.585,0.641c1.316-1.795,3.44-2.961,5.837-2.961c3.994,0,7.231,3.237,7.231,7.231
			c0,0.785-0.125,1.542-0.356,2.249c0.072-0.004,0.146-0.006,0.218-0.006c1.967,0,3.563,1.594,3.563,3.561
			c0,0.231-0.023,0.457-0.065,0.676c0.025,0,0.05-0.003,0.075-0.003c1.111,0,2.016,0.885,2.052,1.986
			c0.309-0.059,0.627-0.089,0.953-0.089c1.284,0,2.486,0.446,3.351,1.264c2.312,2.189-0.213,2.757-2.647,2.757h-3.174h-2.49H49.855
			h-3.986H39.32c-2.537,0-6.161,0.417-3.643-2.236C37.264,243.203,39.507,242.162,41.995,242.162L41.995,242.162z M63.935,230.347
			c0.125-0.021,0.255-0.031,0.386-0.031h0.066c-0.011-0.181-0.018-0.363-0.018-0.547c0-3.972,2.564-7.341,6.125-8.552
			c-1.74,0.21-3.301,1.005-4.48,2.184c-1.381,1.382-2.238,3.292-2.238,5.401C63.777,229.33,63.832,229.848,63.935,230.347
			L63.935,230.347z M55.029,238.497c0.233-0.081,0.483-0.123,0.744-0.123c0.129,0,0.254,0.01,0.377,0.032
			c-0.259-0.607-0.403-1.276-0.403-1.978c0-1.397,0.572-2.663,1.494-3.573c-0.603,0.191-1.142,0.523-1.578,0.96
			c-0.705,0.704-1.142,1.679-1.142,2.755C54.521,237.273,54.706,237.929,55.029,238.497z"/>
	</g>
	<g>
		<path style="fill-rule:evenodd;clip-rule:evenodd;fill:#FFFFFF;" d="M182.269,126.777c1.067,0,2.089,0.192,3.033,0.543
			c0.428-0.47,1.045-0.767,1.729-0.767c0.319,0,0.624,0.065,0.9,0.181c0.152-2.01,1.832-3.593,3.882-3.593
			c0.89,0,1.709,0.299,2.364,0.802c0.143-0.196,0.314-0.369,0.512-0.513c-0.373-0.663-0.587-1.43-0.587-2.244
			c0-1.267,0.514-2.415,1.344-3.245c0.83-0.83,1.978-1.343,3.246-1.343h0.014c0.699-0.368,1.493-0.575,2.337-0.575
			c0.517,0,1.016,0.078,1.484,0.221c0.214-0.455,0.574-0.829,1.02-1.061c-0.124-0.567-0.188-1.16-0.188-1.766
			c0-2.301,0.932-4.383,2.44-5.892c1.507-1.507,3.591-2.44,5.891-2.44c0.732,0,1.442,0.095,2.118,0.273
			c4.924,0.07,8.893,4.086,8.893,9.025c0,0.07-0.001,0.14-0.003,0.209c0.436-0.111,0.892-0.169,1.362-0.169
			c0.934,0,1.813,0.232,2.586,0.64c1.316-1.795,3.44-2.961,5.836-2.961c3.995,0,7.232,3.237,7.232,7.231
			c0,0.786-0.125,1.542-0.357,2.249c0.072-0.004,0.146-0.006,0.219-0.006c1.967,0,3.562,1.594,3.562,3.562
			c0,0.231-0.022,0.457-0.064,0.676c0.025-0.003,0.05-0.003,0.075-0.003c1.111,0,2.016,0.883,2.052,1.985
			c0.309-0.058,0.626-0.091,0.953-0.091c1.283,0,2.485,0.447,3.35,1.267c2.314,2.188-0.213,2.757-2.646,2.757h-3.174h-2.491h-51.064
			h-3.986h-6.549c-2.536,0-6.161,0.416-3.643-2.238C177.538,127.82,179.782,126.777,182.269,126.777L182.269,126.777z
			 M204.208,114.963c0.126-0.021,0.255-0.033,0.387-0.033l0.066,0.003c-0.011-0.181-0.017-0.364-0.017-0.548
			c0-3.97,2.563-7.342,6.125-8.551c-1.741,0.209-3.301,1.004-4.479,2.183c-1.383,1.382-2.238,3.293-2.238,5.401
			C204.051,113.947,204.106,114.464,204.208,114.963L204.208,114.963z M195.303,123.114c0.233-0.081,0.482-0.123,0.743-0.123
			c0.129,0,0.255,0.01,0.377,0.03c-0.259-0.607-0.402-1.274-0.402-1.976c0-1.399,0.571-2.663,1.494-3.575
			c-0.602,0.19-1.141,0.525-1.578,0.96c-0.706,0.706-1.142,1.681-1.142,2.756C194.795,121.888,194.979,122.545,195.303,123.114z"/>
	</g>
	<g>
		<path style="fill-rule:evenodd;clip-rule:evenodd;fill:#FFFFFF;" d="M377.249,232.018c1.068,0,2.089,0.192,3.033,0.543
			c0.428-0.471,1.045-0.766,1.729-0.766c0.319,0,0.625,0.063,0.901,0.182c0.152-2.013,1.832-3.595,3.881-3.595
			c0.889,0,1.708,0.298,2.365,0.8c0.143-0.195,0.313-0.369,0.511-0.51c-0.374-0.664-0.586-1.43-0.586-2.245
			c0-1.268,0.514-2.416,1.344-3.245c0.831-0.829,1.978-1.344,3.245-1.344h0.015c0.699-0.367,1.493-0.576,2.337-0.576
			c0.517,0,1.015,0.078,1.484,0.224c0.214-0.457,0.573-0.83,1.02-1.06c-0.123-0.571-0.188-1.161-0.188-1.77
			c0-2.299,0.932-4.383,2.439-5.89c1.507-1.508,3.59-2.44,5.891-2.44c0.731,0,1.441,0.094,2.118,0.271
			c4.924,0.073,8.892,4.086,8.892,9.026c0,0.07,0,0.141-0.002,0.21c0.435-0.111,0.892-0.17,1.363-0.17
			c0.933,0,1.814,0.23,2.586,0.641c1.315-1.797,3.44-2.963,5.836-2.963c3.995,0,7.231,3.239,7.231,7.233
			c0,0.785-0.125,1.542-0.356,2.247c0.071-0.002,0.145-0.005,0.218-0.005c1.968,0,3.563,1.593,3.563,3.561
			c0,0.232-0.022,0.458-0.064,0.677c0.025,0,0.05-0.003,0.075-0.003c1.111,0,2.015,0.884,2.052,1.986
			c0.308-0.06,0.626-0.089,0.953-0.089c1.284,0,2.484,0.444,3.35,1.264c2.313,2.188-0.213,2.756-2.646,2.756h-3.175h-2.49H385.11
			h-3.985h-6.549c-2.538,0-6.162,0.416-3.643-2.236C372.519,233.06,374.763,232.018,377.249,232.018L377.249,232.018z
			 M399.19,220.203c0.125-0.021,0.255-0.033,0.386-0.033l0.067,0.002c-0.011-0.182-0.017-0.365-0.017-0.548
			c0-3.971,2.564-7.341,6.124-8.552c-1.74,0.212-3.301,1.006-4.48,2.184c-1.381,1.383-2.237,3.292-2.237,5.4
			C399.032,219.186,399.086,219.704,399.19,220.203L399.19,220.203z M390.284,228.354c0.234-0.081,0.484-0.124,0.744-0.124
			c0.129,0,0.254,0.011,0.376,0.032c-0.259-0.607-0.402-1.275-0.402-1.977c0-1.398,0.572-2.664,1.494-3.574
			c-0.603,0.19-1.142,0.523-1.578,0.961c-0.705,0.703-1.142,1.678-1.142,2.755C389.776,227.127,389.96,227.785,390.284,228.354z"/>
	</g>
	<g>
		<g>
			<path style="fill-rule:evenodd;clip-rule:evenodd;fill:#FFFFFF;" d="M301.444,207.189c0.2-0.447-1.297-3.686-1.745-3.884
				c-0.447-0.2-4.362,4.968-4.562,5.415c-14.408,24.528-28.759,48.582,17.004,76.514c0.419,0.254,0.967,0.123,1.222-0.297
				c0.256-0.42,0.123-0.966-0.296-1.221C262.723,252.7,290.94,229.464,301.444,207.189z"/>
		</g>
		<g>
			<path style="fill-rule:evenodd;clip-rule:evenodd;fill:#12006C;" d="M265.018,277.382c0,0,13.674,1.053,22.334,10.702
				c8.661,9.649,36.621,47.013,36.621,47.013s7.671-6.681,17.074-3.711c9.401,2.968,24.248,37.856,22.269,50.229
				c-1.979,12.37-18.062,24.248-31.424,25.979c-13.361,1.732-61.61-39.589-61.61-39.589L265.018,277.382z"/>
		</g>
		<g>
			<path style="fill-rule:evenodd;clip-rule:evenodd;fill:#59B2FF;" d="M223.077,243.973c0,0,0.804,3.949,1.493,7.352
				c0.691,3.4,0.588,13.858,0.588,13.858c0.526,2.839,1.055,9.819,5.175,9.677c7.003-0.247-4.336,24.224-13.718,26.855
				c-10.846,3.043-33.605-9.498-46.073-16.903c-1.568-0.932-0.029-5.259-1.334-5.862c0,0,5.989-2.278,6.561-7.827
				c0.571-5.548-1.555-25.665-1.555-25.665L223.077,243.973z"/>
		</g>
		<g>
			<path style="fill-rule:evenodd;clip-rule:evenodd;fill:#2C81FE;" d="M202.947,279.728l0.456,2.585c0,0-2.733-0.18-3.448,1.773
				c-0.715,1.949-3.123,9.949-3.123,9.949s-13.918-1.104-13.983-2.602c-0.065-1.496,1.431-4.487,4.618-9.301
				c3.186-4.812,6.959-6.048,7.284-5.982C195.078,276.216,202.947,279.728,202.947,279.728z"/>
		</g>
		<g>
			<path style="fill-rule:evenodd;clip-rule:evenodd;fill:#2C81FE;" d="M223.077,243.973c0,0,0.804,3.949,1.493,7.352
				c0.691,3.4,0.588,13.858,0.588,13.858c0.226,1.216,0.451,3.193,0.961,5.044c-4.448,3.879-9.344,7.941-11.928,9.401
				c-3.256,1.842-7.338,2.698-11.364,2.69c-4.026,0.008-8.108-0.849-11.364-2.69c-3.335-1.885-10.518-8.1-15.619-12.664
				c-0.194-7.92-1.63-21.507-1.63-21.507L223.077,243.973z"/>
		</g>
		<g>
			<path style="fill-rule:evenodd;clip-rule:evenodd;fill:#12006C;" d="M169.206,278.949l-39.168,13.412
				c0,0,32.267,44.01,6.659,93.498l1.469,6.445c30.784,24.226,69.62,38.679,111.833,38.679c14.025,0,27.678-1.597,40.785-4.616
				l-0.388-27.387l-0.191-11.061c7.411-32.684-1.537-55.886-25.188-110.538l-34.685-2.522
				C228.782,294.966,197.089,297.373,169.206,278.949z"/>
		</g>
		<g>
			<path style="fill-rule:evenodd;clip-rule:evenodd;fill:#12006C;" d="M150.927,366.365c0.454-17.905,3.024-57.818-20.888-74.004
				c0,0-19.119,5.186-24.227,24.236c-5.108,19.05,0.15,46.202-0.539,56.694c-6.077,92.372,56.688,70.944,60.755,46.015
				c4.068-24.928-9.257-27.877-9.257-27.877L150.927,366.365z"/>
		</g>
		<g>
			<path style="fill-rule:evenodd;clip-rule:evenodd;fill:#59B2FF;" d="M237.88,205.593c0,0,2.422-4.244,4.611-4.473
				c2.189-0.23,5.861,4.112,6.321,7.87c0.462,3.759-0.96,17.433-9.022,14.006C231.729,219.568,237.88,205.593,237.88,205.593z"/>
		</g>
		<g>
			<path style="fill-rule:evenodd;clip-rule:evenodd;fill:#2C81FE;" d="M236.706,210.748c-0.191,0.305-0.173,0.752,0.042,1.001
				c0.194,0.224,0.482,0.208,0.678-0.017h-0.001c0,0,4.249,10.987,5.469,8.887c1.22-2.102,2.534-4.15,2.608-7.172
				c0.074-3.022-2.883-5.176-2.167-6.108c0.682-0.89,1.804,0.05,1.907,0.141l0.003,0.003l0.002,0.002l0.002,0.003
				c0.901,0.831,1.462,1.912,1.464,1.917c0.167,0.312,0.492,0.369,0.729,0.131c0.236-0.238,0.294-0.686,0.128-0.996
				c-0.006-0.012-2.114-4.082-5.065-3.326C239.687,205.932,236.715,210.736,236.706,210.748z"/>
		</g>
		<g>
			<path style="fill-rule:evenodd;clip-rule:evenodd;fill:#59B2FF;" d="M146.645,222.471c0,0-5.02-3.761-7.715-2.91
				c-2.695,0.851-4.8,7.838-3.421,12.501c1.378,4.661,10.042,20.037,17.784,11.879C161.035,235.783,146.645,222.471,146.645,222.471
				z"/>
		</g>
		<g>
			<path style="fill-rule:evenodd;clip-rule:evenodd;fill:#2C81FE;" d="M150.793,226.815c0.382,0.259,0.588,0.796,0.462,1.198
				c-0.113,0.361-0.46,0.492-0.805,0.326l0,0c0,0,0.613,15.109-1.896,13.26c-2.511-1.849-5.106-3.59-6.738-7.111
				c-1.632-3.521,0.749-7.57-0.571-8.301c-1.258-0.699-2.098,0.982-2.173,1.141l-0.003,0.005l-0.002,0.005v0.002
				c-0.637,1.441-0.745,3.001-0.745,3.007c-0.037,0.451-0.391,0.688-0.793,0.526c-0.4-0.16-0.695-0.656-0.66-1.107
				c0.001-0.016,0.404-5.888,4.265-6.506C144.822,222.666,150.776,226.803,150.793,226.815z"/>
		</g>
		<g>
			<path style="fill-rule:evenodd;clip-rule:evenodd;fill:#59B2FF;" d="M175.982,134.634
				c-61.909,13.861-42.086,63.423-27.99,103.775c21.944,62.818,99.878,46.632,94.992-19.73
				C239.844,176.051,238.29,122.697,175.982,134.634z"/>
		</g>
		<g>
			<path style="fill-rule:evenodd;clip-rule:evenodd;fill:#2C81FE;" d="M211.673,213.773c1.358-4.733,3.525-7.555,5.975-8.955
				c1.68-0.96,3.494-1.251,5.272-1.032c1.77,0.218,3.506,0.943,5.041,2.02c2.802,1.962,4.942,5.098,5.411,8.445
				c0.014,0.098-0.054,0.189-0.152,0.203c-0.091,0.013-0.174-0.043-0.199-0.128c-0.65-2.267-2.288-4.317-4.399-5.72
				c-1.601-1.063-3.471-1.754-5.39-1.882c-1.913-0.127-3.876,0.306-5.665,1.482c-2.075,1.367-3.921,3.741-5.19,7.413
				c-0.306,0.877-0.513,1.798-0.609,2.715l-0.001,0.001l0.001-0.001c-0.094,0.891-0.083,1.779,0.044,2.622
				c0.015,0.098-0.051,0.19-0.149,0.205c-0.092,0.015-0.178-0.044-0.202-0.132c-0.29-1.115-0.408-2.316-0.372-3.525
				C211.125,216.246,211.328,214.975,211.673,213.773z"/>
		</g>
		<g>
			<path style="fill-rule:evenodd;clip-rule:evenodd;fill:#2C81FE;" d="M175.529,212.904c3.096,0.341,6.529,2.245,9.983,6.439
				c0.877,1.064,1.642,2.264,2.232,3.521c0.568,1.21,0.976,2.478,1.171,3.731c0.017,0.099-0.045,0.197-0.144,0.224
				c-0.106,0.026-0.215-0.037-0.242-0.143c-0.24-0.908-0.622-1.813-1.107-2.673c-0.501-0.885-1.117-1.727-1.81-2.482
				c-2.899-3.158-5.81-4.75-8.511-5.221c-2.328-0.406-4.505,0.019-6.386,0.988c-1.886,0.973-3.478,2.495-4.63,4.274
				c-1.52,2.347-2.277,5.143-1.939,7.722c0.013,0.098-0.048,0.191-0.144,0.219c-0.106,0.027-0.215-0.035-0.243-0.141
				c-0.997-3.595-0.21-7.709,1.765-10.928c1.081-1.765,2.52-3.262,4.216-4.26C171.442,213.174,173.406,212.674,175.529,212.904z"/>
		</g>
		<g>
			<path style="fill-rule:evenodd;clip-rule:evenodd;fill:#2C81FE;" d="M155.04,180.341l5.399,3.422
				c17.939-5.619,53.28,8.15,66.799-7.235c8.276-9.42-9.742-12.838-11.18-12.948C214.619,163.469,155.04,180.341,155.04,180.341z"/>
		</g>
		<g>
			<path style="fill-rule:evenodd;clip-rule:evenodd;fill:#12006C;" d="M242.656,214.153c-0.416-5.78-0.891-12.216-1.476-18.101
				c-3.92-39.477-12.525-67.149-64.327-57.224c-29.584,6.623-38.156,29.052-45.406,43.993c-4.079,8.407,1.284,25.802,10.094,36.913
				c1.807,5.631,3.025,8.924,4.946,14.391h0.001c0,0,4.803-7.396,0.972-19.241c0,0,12.879-2.576,3.198-22.542
				c-9.68-19.969,17.135-27.14,31.071-30.035c13.936-2.895,44.218-15.245,43.29,6.926c-0.927,22.17,9.081,27.656,9.081,27.656
				C235.304,209.281,242.656,214.153,242.656,214.153L242.656,214.153z"/>
		</g>
		<g>
			<path style="fill-rule:evenodd;clip-rule:evenodd;fill:#2C81FE;" d="M199.855,221.602c0.046,0.09,0.106,0.177,0.182,0.254
				l0.416,0.427l0.009,0.009l0.001-0.001c2.126,2.182,8.921,9.167,9.15,10.067c0.116,0.658-1.766,3.194-2.189,3.702
				c-0.975,1.172-4.131,0.784-5.263,0.648c-4.899-0.588,3.8,3.233,5.473,2.267c1.331-0.768,2.071-1.676,2.894-2.934
				c0.694-1.061,1.546-2.901,1.324-4.151c-0.229-1.286-7.244-8.692-9.62-11.067c-2.265-2.367-2.731-4.168-2.653-5.313
				c0.054-0.778-0.217-1.852-0.842-0.247C198.216,216.596,197.794,219.011,199.855,221.602z"/>
		</g>
		<g>
			<path style="fill-rule:evenodd;clip-rule:evenodd;fill:#12006C;" d="M207.163,200.726c0.148,0.663,0.371,0.964,0.519,1.095
				c-0.079-0.927,0.388-1.678,1.204-2.278c3.348-2.169,8.241-2.835,12.583-2.359l-2.315,2.331l-0.02,0.004
				c-4.389,1.014-7.748,3.138-8.873,4.107c-0.396,0.342-0.879,0.706-1.4,0.809c-0.537,0.104-1.108-0.064-1.658-0.805
				c-0.182-0.245-0.324-0.491-0.431-0.73c-0.253-0.566-0.321-1.103-0.304-1.516c0.017-0.43,0.131-0.744,0.226-0.841
				c0.01-0.012,0.023-0.022,0.036-0.029l0.002-0.001l0.002-0.002h0.001c0.288-0.164,0.421,0.194,0.421,0.195l0,0L207.163,200.726
				L207.163,200.726z M223.38,197.474c1.892,0.372,3.601,0.973,4.926,1.767l0,0c0.041,0.025,0.066,0.079,0.06,0.133
				c-0.008,0.066-0.061,0.109-0.118,0.096c-2.232-0.539-4.416-0.613-6.454-0.398L223.38,197.474z"/>
		</g>
		<g>
			<path style="fill-rule:evenodd;clip-rule:evenodd;fill:#12006C;" d="M182.499,196.026c0.207,0.806,0.116,1.263,0.018,1.495
				c-0.442-1.045-1.428-1.565-2.743-1.711c-8.393-0.434-19.279,5.767-23.179,11.631l0,0c-0.034,0.053-0.034,0.126,0.005,0.182
				c0.048,0.067,0.135,0.08,0.195,0.029c3.386-2.836,7.218-4.553,10.825-5.558c5.784-1.61,10.991-1.395,12.885-1.045
				c0.666,0.124,1.448,0.22,2.125,0.01c0.697-0.219,1.276-0.753,1.5-1.888c0.074-0.374,0.1-0.726,0.089-1.05
				c-0.026-0.765-0.257-1.384-0.516-1.817c-0.27-0.451-0.587-0.721-0.752-0.766c-0.022-0.005-0.043-0.009-0.062-0.01h-0.004h-0.003
				h-0.003c-0.435,0.001-0.385,0.469-0.385,0.47l0,0L182.499,196.026z"/>
		</g>
		<g>
			<g>
				<path style="fill-rule:evenodd;clip-rule:evenodd;fill:#12006C;" d="M211.673,214.481c1.358-4.733,3.525-7.555,5.975-8.954
					c1.68-0.96,3.494-1.252,5.272-1.033c1.77,0.217,3.506,0.942,5.041,2.018c2.802,1.963,4.942,5.102,5.411,8.448
					c0.014,0.099-0.054,0.188-0.152,0.202c-0.091,0.014-0.174-0.043-0.199-0.128c-0.65-2.266-2.288-4.315-4.399-5.719
					c-1.601-1.061-3.471-1.753-5.39-1.881c-1.913-0.128-3.876,0.304-5.665,1.481c-2.075,1.366-3.921,3.74-5.19,7.411
					c-0.306,0.879-0.513,1.799-0.609,2.716h-0.001h0.001c-0.094,0.891-0.083,1.779,0.044,2.623c0.015,0.098-0.051,0.189-0.149,0.204
					c-0.092,0.015-0.178-0.043-0.202-0.132c-0.29-1.114-0.408-2.315-0.372-3.525C211.125,216.955,211.328,215.682,211.673,214.481z"
					/>
			</g>
			<g>
				<path style="fill-rule:evenodd;clip-rule:evenodd;fill:#12006C;" d="M215.319,211.759c0.242-0.679,0.508-1.31,0.79-1.899
					c1.282-1.486,3.101-2.601,5.248-3.047c4.847-1.006,9.521,1.771,10.443,6.204c1.532,7.376-7.706,11.288-13.396,9.015
					c-1.077-0.564-2.012-1.338-2.737-2.282C214.317,217.568,214.35,214.465,215.319,211.759z"/>
			</g>
			<g>
				<g>
					<path style="fill:#BFE1FF;" d="M234.431,218.518c-0.011,0-0.021,0-0.032,0c-0.811-0.06-1.3-0.384-1.354-0.422
						c-0.201-0.141-0.252-0.417-0.111-0.619c0.141-0.199,0.415-0.251,0.617-0.114c0.015,0.01,0.354,0.226,0.912,0.267
						c0.246,0.018,0.43,0.23,0.413,0.476C234.858,218.34,234.663,218.518,234.431,218.518z"/>
				</g>
				<g>
					<path style="fill:#BFE1FF;" d="M232.659,220.596c-0.063,0-0.128-0.012-0.188-0.041c-0.612-0.285-0.897-0.688-0.929-0.732
						c-0.138-0.203-0.085-0.48,0.118-0.618c0.201-0.138,0.477-0.088,0.617,0.113c0.009,0.014,0.19,0.252,0.569,0.43
						c0.224,0.104,0.32,0.369,0.216,0.592C232.986,220.501,232.826,220.596,232.659,220.596z"/>
				</g>
			</g>
			<g>
				<path style="fill-rule:evenodd;clip-rule:evenodd;fill:#FFFFFF;" d="M223.587,209.698c0.828-0.259,1.707,0.223,1.968,1.07
					c0.259,0.85-0.202,1.747-1.028,2.003c-0.827,0.258-1.708-0.223-1.967-1.072C222.3,210.851,222.761,209.955,223.587,209.698z"/>
			</g>
		</g>
		<g>
			<g>
				<path style="fill-rule:evenodd;clip-rule:evenodd;fill:#12006C;" d="M175.746,214.025c3.096,0.339,6.528,2.244,9.983,6.438
					c0.877,1.065,1.641,2.264,2.231,3.523c0.568,1.208,0.977,2.476,1.172,3.73c0.017,0.1-0.045,0.197-0.145,0.223
					c-0.105,0.027-0.213-0.035-0.241-0.141c-0.24-0.91-0.62-1.814-1.106-2.674c-0.501-0.887-1.116-1.726-1.811-2.482
					c-2.899-3.159-5.81-4.749-8.512-5.222c-2.327-0.406-4.504,0.02-6.386,0.99c-1.886,0.973-3.477,2.494-4.63,4.272
					c-1.52,2.349-2.277,5.143-1.939,7.724c0.013,0.096-0.047,0.19-0.145,0.216c-0.105,0.03-0.214-0.032-0.243-0.139
					c-0.997-3.596-0.209-7.709,1.765-10.929c1.081-1.763,2.52-3.261,4.216-4.258C171.659,214.294,173.623,213.791,175.746,214.025z"
					/>
			</g>
			<g>
				<path style="fill-rule:evenodd;clip-rule:evenodd;fill:#12006C;" d="M183.401,218.567c-0.544-0.582-1.09-1.103-1.634-1.576
					c-1.951-0.94-4.282-1.27-6.652-0.777c-5.349,1.11-8.86,5.977-7.845,10.87c1.691,8.139,12.762,8.041,17.522,3.236
					c0.841-1.043,1.448-2.238,1.767-3.512C186.967,224.006,185.571,220.88,183.401,218.567z"/>
			</g>
			<g>
				<g>
					<path style="fill:#BFE1FF;" d="M164.227,234.555c-0.16,0-0.316-0.086-0.396-0.239c-0.113-0.218-0.028-0.487,0.189-0.601
						c0.571-0.299,0.823-0.684,0.826-0.686c0.132-0.206,0.407-0.267,0.614-0.139c0.206,0.131,0.27,0.402,0.142,0.611
						c-0.037,0.058-0.383,0.593-1.168,1.002C164.367,234.539,164.297,234.555,164.227,234.555z"/>
				</g>
				<g>
					<path style="fill:#BFE1FF;" d="M166.936,235.879c-0.105,0-0.211-0.035-0.295-0.111c-0.185-0.163-0.201-0.444-0.039-0.629
						c0.325-0.365,0.4-0.705,0.402-0.707c0.051-0.24,0.283-0.396,0.524-0.346c0.239,0.049,0.395,0.277,0.349,0.519
						c-0.012,0.057-0.122,0.575-0.607,1.124C167.181,235.828,167.058,235.879,166.936,235.879z"/>
				</g>
			</g>
			<g>
				<path style="fill-rule:evenodd;clip-rule:evenodd;fill:#FFFFFF;" d="M179.098,219.588c0.913-0.283,1.884,0.246,2.17,1.184
					c0.286,0.936-0.221,1.926-1.133,2.209c-0.914,0.284-1.885-0.246-2.171-1.184C177.676,220.859,178.185,219.871,179.098,219.588z"
					/>
			</g>
		</g>
		<g>
			<path style="fill-rule:evenodd;clip-rule:evenodd;fill:#2C81FE;" d="M210.686,251.933c0.624-0.193,0.999-0.938,0.84-1.659
				c-0.159-0.725-0.794-1.155-1.417-0.962c-0.01,0.003-3.409,1.67-7.747,1.425c-1.533-0.082-1.563,1.933-0.034,2.013
				C207.007,253.013,210.676,251.934,210.686,251.933z"/>
		</g>
		<g>
			<path style="fill-rule:evenodd;clip-rule:evenodd;fill:#2C81FE;" d="M217.983,243.502c0.63-0.349,0.892-1.174,0.585-1.84
				c-0.308-0.666-1.067-0.922-1.697-0.572c-0.028,0.016-9.694,5.525-23.011,3.784c-1.648-0.215-1.739,1.508-0.091,1.722
				C206.016,249.174,217.954,243.518,217.983,243.502z"/>
		</g>
		<g>
			<path style="fill-rule:evenodd;clip-rule:evenodd;fill:#12006C;" d="M149.232,188.646c-43.233,0.414-23.482-62.25-9.003-48.089
				c3.899-31.032,53.33-40.499,42.678-19.768c0,0,34.217-16.552,40.54,9.013c4.163-20.181,37.356,37.805,1.965,47.487
				C195.826,185.385,174.636,175.078,149.232,188.646z"/>
		</g>
		<g>
			<path style="fill-rule:evenodd;clip-rule:evenodd;fill:#12006C;" d="M146.491,242.025c0.652-0.137,1.289,0.282,1.424,0.933
				c0.136,0.652-0.282,1.29-0.934,1.425c-0.652,0.136-1.29-0.282-1.425-0.935C145.421,242.797,145.839,242.159,146.491,242.025z"/>
		</g>
		<g>
			<path style="fill-rule:evenodd;clip-rule:evenodd;fill:#2C81FE;" d="M128.352,143.625c2.925,9.343,12.753,23.018,45.72,3.68
				l0.848-0.5c0.617-0.366,0.95-0.569,0.993-0.332v0.002l0.002,0.007c0.009,0.079-0.046,0.154-0.125,0.167l0,0
				c-0.176,0.158-0.534,0.41-1.09,0.797l-0.431,0.3c-2.478,1.73-7.362,5.002-12.976,8.023c-3.62,1.948-7.544,3.793-11.321,5.055
				c-4.624,1.545-8.562,2.002-11.851,1.887c-3.292-0.118-5.937-0.812-7.972-1.566c-0.402-0.148-0.699-0.262-0.997-0.372l0,0h-0.001
				c-2.632-0.992-4.209-1.585-6.081-1.085C123.633,153.486,125.646,147.613,128.352,143.625L128.352,143.625z M179.238,144.193
				c0.032-0.027,11.456-9.581,19.944-8.782c0.083,0.007,0.145,0.083,0.138,0.166c-0.007,0.079-0.074,0.139-0.152,0.139l0,0
				c-0.009,0.001-3.313,0.024-4.803,2.405c-1.276,2.042-2.882,2.25-5.008,2.527c-0.497,0.064-1.025,0.133-1.569,0.229
				c-1.485,0.259-3.008,0.695-4.477,1.318c-1.363,0.581-2.678,1.322-3.871,2.23l-0.006,0.005l0,0l-0.004,0.002
				c-0.068,0.052-0.165,0.039-0.215-0.027C179.165,144.34,179.176,144.246,179.238,144.193L179.238,144.193z"/>
		</g>
		<g>
			<path style="fill:#2C81FE;" d="M323.274,404.529c-0.143,0-0.282-0.069-0.369-0.196c-0.113-0.165-11.395-16.677-16.04-27.258
				c-4.268-9.722-3.418-18.497,2.529-26.08c5.155-6.573,14.164-16.109,14.255-16.205c0.169-0.178,0.451-0.187,0.629-0.018
				c0.18,0.169,0.187,0.451,0.018,0.63c-0.09,0.096-9.071,9.603-14.201,16.143c-5.809,7.408-6.599,15.641-2.415,25.172
				c4.613,10.506,15.848,26.948,15.961,27.113c0.139,0.203,0.087,0.48-0.116,0.62C323.448,404.504,323.361,404.529,323.274,404.529z
				 M290.887,385.158c-0.029,0-0.058-0.002-0.087-0.008c-0.241-0.047-0.398-0.282-0.351-0.523
				c4.264-21.621,0.958-39.608-8.371-64.755c-0.031-0.05-0.053-0.108-0.061-0.167c-1.791-4.82-3.803-9.904-6.025-15.328
				c-0.093-0.227,0.016-0.488,0.244-0.581c0.227-0.091,0.487,0.015,0.582,0.243c1.949,4.762,3.74,9.265,5.36,13.557l0.133-1.611
				c0.02-0.246,0.239-0.426,0.481-0.406c0.245,0.02,0.428,0.233,0.407,0.479l-0.289,3.495c9.391,25.311,12.717,43.421,8.412,65.246
				C291.282,385.012,291.096,385.158,290.887,385.158z M150.927,366.81c-0.003,0-0.007,0-0.011,0
				c-0.246-0.007-0.441-0.211-0.435-0.456c0.025-0.959,0.056-1.982,0.088-3.059c0.375-12.612,0.982-32.998-5.276-49.683
				c-0.002-0.006-0.004-0.011-0.006-0.018c-0.583-1.55-1.223-3.068-1.929-4.546c-0.106-0.222-0.013-0.487,0.21-0.593
				c0.221-0.105,0.488-0.013,0.593,0.209c0.483,1.01,0.936,2.04,1.361,3.082l0.085-0.545c0.039-0.244,0.27-0.409,0.509-0.372
				c0.244,0.038,0.409,0.267,0.372,0.509l-0.321,2.063c6.278,16.83,5.671,37.265,5.295,49.92c-0.033,1.076-0.063,2.096-0.087,3.053
				C151.367,366.619,151.168,366.81,150.927,366.81z M207.05,300.504c-11.74,0-25.295-4.387-38.865-12.889
				c-0.208-0.133-0.271-0.406-0.141-0.615c0.13-0.208,0.405-0.272,0.615-0.141c20.919,13.104,41.748,16.341,55.716,8.654
				c7.825-4.307,12.337-11.651,12.381-20.157c0.002-0.246,0.201-0.443,0.445-0.443c0.001,0,0.002,0,0.002,0
				c0.247,0.001,0.445,0.202,0.444,0.448c-0.045,8.838-4.726,16.466-12.842,20.933C219.675,299.117,213.649,300.504,207.05,300.504z
				"/>
		</g>
		<g>
			<g>
				<path style="fill-rule:evenodd;clip-rule:evenodd;fill:#59B2FF;" d="M161.222,284.666c0,0,0.65,7.172-1.108,13.311
					c-1.757,6.139-12.396,35.899-16.812,48.322c-4.414,12.423-17.43,32.421-21.169,44.272c-3.74,11.851,2.319,29.933,6.499,36.63
					c4.182,6.698,18.963,4.876,31.027-13.424c12.063-18.302,14.402-92.569,27.382-116.771L161.222,284.666z"/>
			</g>
			<g>
				<g>
					<path style="fill-rule:evenodd;clip-rule:evenodd;fill:#59B2FF;" d="M161.222,284.666c-0.641-3.637-2.425-8.517-2.991-11.24
						c-0.764-3.673-0.727-8.653-1.855-14.664c-1.127-6.01-4.443-8.756-5.262-9.408c-0.817-0.65,0.607-3.412,4.859-2.309
						c4.253,1.104,6.951,6.194,7.522,8.059c0,0,9.156-10.064,12.27-12.55c3.113-2.486,6.588-0.718,7.477,0.123
						c0.892,0.841,4.6,4.876,4.6,4.876s3.623,0.108,4.719,1.812c1.093,1.704,2.201,5.277,2.201,5.277s6.418,1.31,6.216,9.478
						c0,0,2.617,1.475,2.788,3.89c0.171,2.415-2.841,8.76-3.612,10.239c-0.77,1.483-4.377,2.68-4.377,2.68s-2.438,6.825-3.47,10.108
						c-1.031,3.28-5.265,5.97-5.265,5.97C167.518,304.141,161.222,284.666,161.222,284.666L161.222,284.666z"/>
				</g>
				<g>
					<path style="fill:#2C81FE;" d="M195.777,281.372c-0.052,0-0.105-0.009-0.156-0.028c-0.23-0.088-0.347-0.344-0.26-0.575
						c0.002-0.002,0.206-0.548,0.48-1.384c0.604-1.839,1.017-3.45,1.227-4.752c0.002-0.021,0.005-0.044,0.011-0.065
						c0.202-1.285,0.2-2.257-0.017-2.828c-0.088-0.229,0.027-0.487,0.258-0.574c0.23-0.089,0.487,0.028,0.575,0.258
						c0.217,0.569,0.261,1.348,0.19,2.233c0.687-0.528,1.516-1.152,1.755-1.258c0.224-0.1,0.488,0,0.589,0.227
						c0.099,0.225-0.002,0.487-0.227,0.588c-0.196,0.096-1.285,0.918-2.276,1.699c-0.262,1.555-0.755,3.278-1.237,4.751
						c-0.284,0.86-0.495,1.421-0.495,1.421C196.127,281.263,195.958,281.372,195.777,281.372z M187.974,265.75
						c-0.078,0-0.157-0.02-0.229-0.065c-0.21-0.127-0.278-0.397-0.152-0.609c0.057-0.095,1.439-2.336,4.784-2.336
						c0.003,0,0.004,0,0.008,0c2.743,0,7.159,0.69,8.449,0.904l0.219,0.037c0.243,0.041,0.406,0.27,0.364,0.514
						c-0.041,0.243-0.271,0.406-0.513,0.363l-0.217-0.036c-0.904-0.15-5.558-0.894-8.302-0.894c-0.004,0-0.005,0-0.008,0
						c-2.822,0.003-3.974,1.83-4.021,1.908C188.272,265.675,188.125,265.75,187.974,265.75z M171.145,261.08
						c-0.051,0-0.104-0.009-0.155-0.029c-0.231-0.086-0.348-0.343-0.262-0.572c0.069-0.185,1.701-4.528,2.647-5.662
						c0.675-0.81,4.098-2.854,7.848-5.057c0.937-0.55,1.71-1.004,2.13-1.268c1.747-1.088,4.334-1.371,4.443-1.383
						c0.241-0.019,0.463,0.152,0.489,0.396c0.025,0.246-0.151,0.464-0.396,0.49c-0.024,0.002-2.494,0.275-4.064,1.253
						c-0.424,0.265-1.206,0.724-2.151,1.278c-2.612,1.536-6.984,4.104-7.615,4.859c-0.707,0.846-2.042,4.187-2.497,5.403
						C171.495,260.97,171.326,261.08,171.145,261.08z M181.286,260.135c-0.059,0-0.119-0.012-0.177-0.038
						c-0.226-0.096-0.33-0.358-0.232-0.585c0.688-1.597,1.193-2.471,4.351-3.352c3.068-0.855,9.199-1.913,9.459-1.957
						c0.241-0.037,0.473,0.12,0.515,0.363c0.041,0.242-0.122,0.472-0.364,0.515c-0.064,0.01-6.347,1.095-9.372,1.937
						c-2.892,0.807-3.185,1.487-3.771,2.847C181.623,260.033,181.457,260.135,181.286,260.135z M161.143,259.585
						c-0.042,0-0.085-0.006-0.128-0.019c-0.236-0.07-0.368-0.319-0.297-0.556c0.564-1.864,2.356-4.093,2.433-4.187
						c0.154-0.191,0.435-0.221,0.626-0.064c0.191,0.152,0.221,0.435,0.066,0.625c-0.018,0.023-1.759,2.188-2.273,3.885
						C161.512,259.461,161.335,259.585,161.143,259.585z"/>
				</g>
				<g>
					<path style="fill:#2C81FE;" d="M195.777,281.372c-0.186,0-0.36-0.118-0.422-0.304c-0.078-0.234,0.049-0.485,0.282-0.564
						c0.955-0.318,3.559-1.379,4.121-2.461c0.747-1.433,3.726-7.715,3.563-10.002c-0.152-2.152-2.538-3.519-2.561-3.532
						c-0.145-0.08-0.231-0.235-0.227-0.399c0.19-7.679-5.614-8.98-5.861-9.031c-0.159-0.032-0.288-0.15-0.336-0.304
						c-0.011-0.035-1.102-3.536-2.15-5.169c-0.794-1.236-3.414-1.58-4.357-1.607c-0.12-0.003-0.234-0.056-0.315-0.143
						c-0.037-0.04-3.708-4.033-4.577-4.854c-0.858-0.812-4.086-2.341-6.894-0.099c-3.05,2.435-12.127,12.402-12.218,12.502
						c-0.108,0.119-0.271,0.169-0.428,0.135c-0.156-0.035-0.281-0.151-0.328-0.305c-0.613-2.003-3.278-6.738-7.208-7.76
						c-2.842-0.734-4.152,0.363-4.447,1.048c-0.097,0.226-0.358,0.331-0.585,0.233c-0.226-0.098-0.33-0.358-0.232-0.585
						c0.427-0.996,2.066-2.446,5.488-1.558c4.177,1.084,6.715,5.583,7.574,7.651c1.963-2.144,9.102-9.883,11.828-12.059
						c3.208-2.564,6.879-0.97,8.062,0.147c0.811,0.765,3.835,4.043,4.497,4.764c0.801,0.049,3.823,0.347,4.89,2.006
						c0.962,1.499,1.907,4.314,2.177,5.151c1.231,0.366,6.375,2.329,6.315,9.6c0.683,0.444,2.627,1.897,2.782,4.104
						c0.206,2.902-3.622,10.401-3.661,10.478c-0.83,1.596-4.245,2.766-4.632,2.895C195.871,281.364,195.824,281.372,195.777,281.372
						z"/>
				</g>
			</g>
		</g>
		<g>
			<path style="fill-rule:evenodd;clip-rule:evenodd;fill:#59B2FF;" d="M362.862,263.459c0,0-39.776,0.322-39.757,6.706
				c0.09,29.437,1.588,47.765-3.551,83.918c-2.998,21.094,4.824,30.162,9.005,36.859c4.181,6.696,14.635,10.114,26.7-8.187
				c12.063-18.3-5.917-60.481-10.344-94.534l-1.947-15.821L362.862,263.459z"/>
		</g>
		<g>
			<g>
				<path style="fill-rule:evenodd;clip-rule:evenodd;fill:#2C81FE;" d="M378.535,263.329c0,0,3.766-7.328,4.166-8.256
					c0.4-0.927,3.562-2.503,4.279-0.54C387.7,256.498,378.535,263.329,378.535,263.329z"/>
			</g>
			<g>
				<path style="fill-rule:evenodd;clip-rule:evenodd;fill:#2C81FE;" d="M337.353,261.117l-0.077-2.855c0,0,4.607-0.349,6.685-0.939
					c2.079-0.59,8.44-4.091,9.524-4.252c1.084-0.163,2.505-0.387,3.338,0.521c0.834,0.906,1.234,5.143-5.413,7.689
					C344.762,263.828,337.353,261.117,337.353,261.117z"/>
			</g>
			<g>
				<path style="fill-rule:evenodd;clip-rule:evenodd;fill:#59B2FF;" d="M351.411,261.28c0,0,7.725-0.389,12.261,0.457
					c4.536,0.846,6.345,1.926,6.345,1.926l6.181,0.019l7.278-4.814l7-10.42c0,0,0.883-1.724,3.068-1.843
					c2.188-0.12,2.698,0.626,2.583,1.667c0,0,0.913,1.053,0.974,2.147c0.06,1.094-5.253,9.582-5.253,9.582l-1.537,6.107
					c0,0-5.68,6.599-6.933,8.012c-1.251,1.412-31.135,2.058-32.214,2.289c-1.078,0.229-5.03-0.003-6.794,5.542
					c-14.861,0.188-18.603-2.814-21.266-11.786C323.764,253.267,339.871,258.027,351.411,261.28z"/>
			</g>
			<g>
				<path style="fill:#2C81FE;" d="M373.522,268.942c-0.116,0-0.227-0.045-0.31-0.124c-0.066-0.063-6.7-6.282-19.341-5.807
					c-0.238,0.016-0.453-0.182-0.462-0.428c-0.009-0.246,0.182-0.452,0.429-0.462c12.131-0.458,18.751,4.939,19.842,5.915
					l5.691-0.49l4.867-3.116c0.432-1.03,2.606-5.96,4.961-6.646c0.819-0.239,1.514-0.169,2.064,0.213
					c0.923,0.643,1.026,1.918,1.03,1.971c0.018,0.246-0.165,0.457-0.411,0.477c-0.248,0.03-0.457-0.166-0.478-0.409
					c-0.001-0.01-0.08-0.912-0.653-1.307c-0.316-0.219-0.755-0.249-1.303-0.088c-1.754,0.51-3.799,4.689-4.44,6.257
					c-0.035,0.085-0.095,0.157-0.172,0.207l-5.078,3.252c-0.06,0.039-0.13,0.063-0.202,0.068l-5.997,0.516
					C373.546,268.941,373.534,268.942,373.522,268.942z M331.774,266.164c-0.108,0-0.216-0.039-0.301-0.117
					c-0.181-0.166-0.193-0.45-0.026-0.631c6.181-6.734,19.473-4.666,20.035-4.576c0.242,0.041,0.408,0.268,0.368,0.511
					c-0.04,0.243-0.269,0.409-0.511,0.369c-0.133-0.021-13.381-2.078-19.237,4.3C332.015,266.114,331.895,266.164,331.774,266.164z
					 M369.835,265.21c-0.24,0-0.439-0.193-0.446-0.435c-0.006-0.246,0.188-0.451,0.435-0.457l6.679-0.169l6.211-3.209
					c0.722-0.837,8.133-9.423,9.59-11.541c1.4-2.035,3.235-1.895,4.01-1.532c0.223,0.102,0.319,0.368,0.216,0.592
					c-0.104,0.223-0.366,0.32-0.589,0.217c-0.069-0.029-1.594-0.676-2.903,1.228c-1.552,2.258-9.374,11.302-9.707,11.683
					c-0.036,0.045-0.081,0.08-0.131,0.107l-6.378,3.296c-0.061,0.031-0.127,0.049-0.194,0.05l-6.781,0.171
					C369.843,265.21,369.839,265.21,369.835,265.21z"/>
			</g>
			<g>
				<path style="fill-rule:evenodd;clip-rule:evenodd;fill:#2C81FE;" d="M344.915,288.222c0.449-5.98-1.158-10.943,8.833-11.961
					h-5.036h-11.135c-1.024,0.325-0.5,0.803-0.125,1.216C340.657,281.017,343.054,282.631,344.915,288.222z"/>
			</g>
		</g>
		<g>
			<path style="fill-rule:evenodd;clip-rule:evenodd;fill:#12006C;" d="M301.16,218.641c0,0,5.582,5.734,10.87,6.001
				c0,0,7.018-3.724,15.831-9.91l-1.668-1.648c-3.911,2.398-6.43,3.736-6.43,3.736c-5.289-0.267-10.871-5.999-10.871-5.999
				s-5.798-5.517-6.126-10.801c0,0,1.307-2.534,3.661-6.473l-1.669-1.648c-6.083,8.885-9.724,15.943-9.724,15.943
				C295.36,213.126,301.16,218.641,301.16,218.641z"/>
		</g>
		<g>
			<path style="fill-rule:evenodd;clip-rule:evenodd;fill:#E33BA3;" d="M332.505,140.795l-12.432,0.735c0,0-3.23,0.601-4.957,3.015
				c-1.726,2.415-14.518,26.698-14.518,26.698s18.42,3.521,19.566,0.456C321.31,168.635,332.505,140.795,332.505,140.795z"/>
		</g>
		<g>
			<path style="fill-rule:evenodd;clip-rule:evenodd;fill:#E33BA3;" d="M378.282,186.041l-0.59,12.439c0,0-0.561,3.237-2.956,4.991
				c-2.395,1.755-26.528,14.83-26.528,14.83s-3.733-18.378-0.684-19.56C350.574,197.561,378.282,186.041,378.282,186.041z"/>
		</g>
		<g>
			<path style="fill-rule:evenodd;clip-rule:evenodd;fill:#59B2FF;" d="M303.73,215.689c0,0,11.384,11.692,22.168,12.233
				c0,0,72.843-38.63,96.303-86.518c21.56-44.008-3.932-66.785-46.667-44.484c-47.096,24.576-84.295,96.744-84.295,96.744
				C291.905,204.441,303.73,215.689,303.73,215.689z"/>
		</g>
		<g>
			<path style="fill-rule:evenodd;clip-rule:evenodd;fill:#2C81FE;" d="M304.186,216.139c2.217,2.148,12.197,11.307,21.712,11.783
				c0,0,72.843-38.63,96.303-86.518c4.895-9.989,7.356-18.881,7.75-26.404c0.163-18.162-23.943-13.58-29.001,17.33
				c-4.244,25.933-13.439,61.77-49.275,70.963C328.069,209.352,315.203,207.441,304.186,216.139z"/>
		</g>
		<g>
			<path style="fill-rule:evenodd;clip-rule:evenodd;fill:#FF75CA;" d="M420.538,144.618c0.575-1.067,1.136-2.139,1.663-3.214
				c3.628-7.407,5.921-14.211,7.023-20.301c0.706-4.731,0.825-9.506,0.256-14.305c-1.885-10.215-8.703-16.656-19.044-18.192
				c-4.464-0.415-8.901-0.238-13.294,0.447c-6.499,1.201-13.762,3.771-21.608,7.866c-0.701,0.365-1.4,0.742-2.097,1.131
				c-1.016,13.277,2.891,25.915,12.027,34.946C394.598,142.025,407.276,145.787,420.538,144.618z"/>
		</g>
		<g>
			<path style="fill-rule:evenodd;clip-rule:evenodd;fill:#E33BA3;" d="M420.538,144.618c0.575-1.067,1.136-2.139,1.663-3.214
				c3.628-7.407,5.921-14.211,7.023-20.301c0.412-2.762,0.624-5.537,0.617-8.324c-1.771-15.498-24.051-10.025-28.891,19.551
				c-0.499,3.051-1.069,6.242-1.741,9.508C405.78,144.369,413.066,145.275,420.538,144.618z"/>
		</g>
		<g>
			<path style="fill-rule:evenodd;clip-rule:evenodd;fill:#FF75CA;" d="M303.73,215.689c0,0,11.384,11.692,22.168,12.233
				c0,0,14.309-7.592,32.281-20.209l-3.402-3.36c-7.975,4.891-13.113,7.617-13.113,7.617c-10.784-0.54-22.168-12.233-22.168-12.233
				s-11.825-11.246-12.492-22.022c0,0,2.667-5.169,7.466-13.202l-3.401-3.362c-12.405,18.118-19.831,32.515-19.831,32.515
				C291.905,204.441,303.73,215.689,303.73,215.689z"/>
		</g>
		<g>
			<path style="fill-rule:evenodd;clip-rule:evenodd;fill:#E33BA3;" d="M304.186,216.139c2.217,2.148,12.197,11.307,21.712,11.783
				c0,0,14.309-7.592,32.281-20.209l-3.402-3.36c-7.975,4.891-13.113,7.617-13.113,7.617c-4.169-0.208-8.428-2.085-12.084-4.307
				C318.874,209.378,311.158,210.636,304.186,216.139z"/>
		</g>
		<g>
			<path style="fill-rule:evenodd;clip-rule:evenodd;fill:#12006C;" d="M317.623,228.854l-2.463-4.453c0,0-0.279-0.992,0.999-2.327
				c1.277-1.333,28.641-22.18,28.641-22.18s3.014-2.131,5.633-0.862c2.62,1.271,11.279,6.174,11.279,6.174s1.843,1.151-0.16,2.592
				c-2.002,1.443-10.879,7.629-10.879,7.629L317.623,228.854z"/>
		</g>
		<g>
			<path style="fill-rule:evenodd;clip-rule:evenodd;fill:#2C81FE;" d="M350.432,199.033c2.62,1.27,11.279,6.172,11.279,6.172
				s1.844,1.151-0.16,2.594c-2.002,1.441-10.879,7.627-10.879,7.627l-1.772,0.721l-0.486-6.104c0,0-0.48-7.787-0.441-9.873
				C348.014,198.084,350.432,199.033,350.432,199.033z"/>
		</g>
		<g>
			<path style="fill-rule:evenodd;clip-rule:evenodd;fill:#FF75CA;" d="M308.137,251.449l10.617-25.294
				c0,0,28.593-16.566,29.379-16.944c0.785-0.377,1.658-0.008,1.658-0.008l3.696,1.754l-9.299,25.431c0,0-0.934,3.237-3.517,4.602
				c-2.583,1.362-30.347,13.855-30.347,13.855C307.232,256.091,307.245,253.577,308.137,251.449z"/>
		</g>
		<g>
			<path style="fill-rule:evenodd;clip-rule:evenodd;fill:#E33BA3;" d="M348.796,209.045c0.545-0.032,0.995,0.158,0.995,0.158
				l3.696,1.754l-9.299,25.431c0,0-0.934,3.237-3.517,4.602c-2.583,1.362-30.347,13.855-30.347,13.855
				c-1.929,0.778-2.649,0.092-2.702-1.052c0.672,0.512,2.706-0.511,2.706-0.511s26.282-13.702,28.431-14.876
				c2.148-1.174,2.801-2.836,2.801-2.836s7.29-24.705,7.482-25.482C349.234,209.309,348.796,209.045,348.796,209.045z"/>
		</g>
		<g>
			<path style="fill-rule:evenodd;clip-rule:evenodd;fill:#12006C;" d="M290.404,201.949l4.481,2.411c0,0,0.995,0.268,2.315-1.025
				c1.318-1.293,21.844-28.898,21.844-28.898s2.097-3.039,0.795-5.643c-1.299-2.605-6.304-11.206-6.304-11.206
				s-1.171-1.829-2.59,0.188c-1.418,2.021-7.501,10.969-7.501,10.969L290.404,201.949z"/>
		</g>
		<g>
			<path style="fill-rule:evenodd;clip-rule:evenodd;fill:#2C81FE;" d="M320.05,169.301c-1.882-3.457-6.49-11.669-6.515-11.712
				c-2.911,4.142-5.581,8.132-7.983,11.851c1.188-0.066,1.576,1.178,4.296,0.944C312.568,170.152,317.635,170.177,320.05,169.301z"
				/>
		</g>
		<g>
			<path style="fill-rule:evenodd;clip-rule:evenodd;fill:#E33BA3;" d="M267.921,211.698l25.167-10.913
				c0,0,16.231-28.783,16.6-29.572c0.368-0.79-0.01-1.658-0.01-1.658l-1.798-3.676l-25.32,9.596c0,0-3.228,0.973-4.56,3.57
				c-1.332,2.599-13.502,30.508-13.502,30.508C263.289,212.657,265.802,212.615,267.921,211.698z"/>
		</g>
		<g>
			<path style="fill-rule:evenodd;clip-rule:evenodd;fill:#FF75CA;" d="M309.848,170.547c0.025-0.545-0.169-0.992-0.169-0.992
				l-1.798-3.676l-25.32,9.596c0,0-3.228,0.973-4.56,3.57c-1.332,2.599-13.502,30.508-13.502,30.508
				c-0.755,1.938-0.06,2.649,1.083,2.688c-0.517-0.666,0.481-2.712,0.481-2.712s13.394-26.439,14.543-28.602
				c1.148-2.164,2.802-2.835,2.802-2.835s24.62-7.578,25.395-7.779C309.579,170.112,309.848,170.547,309.848,170.547z"/>
		</g>
		<g>
			<path style="fill-rule:evenodd;clip-rule:evenodd;fill:#BFE1FF;" d="M374.118,142.629c-10.814-10.689-25.803-13.06-33.477-5.298
				l-2.668,2.701l39.163,38.709l2.668-2.7C387.479,168.278,384.932,153.317,374.118,142.629z"/>
		</g>
		<g>
			<path style="fill-rule:evenodd;clip-rule:evenodd;fill:#FFFFFF;" d="M371.449,145.329c-10.814-10.689-25.802-13.062-33.476-5.297
				c-7.674,7.765-5.128,22.723,5.687,33.412c10.815,10.689,25.803,13.062,33.476,5.297
				C384.809,170.977,382.263,156.019,371.449,145.329z"/>
		</g>
		<g>
			<path style="fill-rule:evenodd;clip-rule:evenodd;fill:#2C81FE;" d="M366.848,149.982c-7.735-7.644-18.454-9.34-23.943-3.787
				c-5.488,5.552-3.667,16.252,4.068,23.898c7.734,7.645,18.454,9.342,23.942,3.789
				C376.403,168.328,374.582,157.629,366.848,149.982z"/>
		</g>
		<g>
			<path style="fill-rule:evenodd;clip-rule:evenodd;fill:#12006C;" d="M343.947,145.938c-2.625,5.869-0.294,14.405,6.178,20.801
				c6.473,6.396,15.034,8.63,20.873,5.935c0.517-0.238,1.014-0.517,1.484-0.833c-0.249,0.428-0.53,0.836-0.842,1.225
				c-0.035,0.046-0.072,0.091-0.109,0.137c-0.194,0.234-0.399,0.462-0.616,0.681c-0.226,0.229-0.46,0.444-0.705,0.648
				c-5.662,4.754-15.822,2.892-23.237-4.438c-7.735-7.646-9.556-18.344-4.068-23.898c0.217-0.218,0.441-0.426,0.673-0.623
				c0.293-0.248,0.596-0.477,0.912-0.689C344.29,145.224,344.109,145.575,343.947,145.938z"/>
		</g>
		<g>
			<path style="fill-rule:evenodd;clip-rule:evenodd;fill:#FFFFFF;" d="M302.962,220.271c-21.439,14.152-20.491,38.274,1.279,58.914
				c4.382,4.154,11.299,8.347,19.084,12.79l-0.022-2.057c-7.309-4.191-13.752-8.15-17.837-12.022
				c-21.879-20.742-21.217-41.433,3.41-53.979C306.548,223.016,304.397,221.461,302.962,220.271L302.962,220.271z M349.005,310.065
				c41.577,39.132-8.457,71.82-45.202,54.124c-6.292-2.827-12.514-6.515-18.434-10.954c-41.4-35.221-79.616-46.457-122.878-3.419
				c-77.813,74.318-100.048,15.497-70.325-11.208c-0.316-0.561-0.63-1.126-0.94-1.691c-35.45,29.701-16.332,100.715,72.477,14.199
				c41.992-39.153,79.256-27.469,120.601,3.538c6.029,4.521,12.365,8.276,18.774,11.157c45.798,20.576,101.484-16.603,44.937-60.223
				C348.335,307.074,348.667,308.57,349.005,310.065z"/>
		</g>
		<g>
			<path style="fill-rule:evenodd;clip-rule:evenodd;fill:#FFFFFF;" d="M172.182,297.808c2.707,0.48,5.223,1.116,7.447,1.853
				c3.124,1.032,5.708,2.278,7.477,3.588c2.075,1.532,3.124,3.238,2.819,4.951c-0.028,0.161-0.069,0.318-0.118,0.469
				c-0.711,2.149-3.677,3.551-7.896,4.078c-0.188,0.022-0.378,0.045-0.57,0.064c0.249-0.949,0.503-1.881,0.763-2.788
				c2.895-0.415,4.83-1.173,5.166-2.188c0.011-0.035,0.02-0.068,0.024-0.096c0.11-0.619-0.545-1.442-1.774-2.351
				c-1.535-1.135-3.858-2.243-6.726-3.19c-2.111-0.698-4.501-1.304-7.073-1.759c-4.981-0.884-9.688-1.048-13.269-0.602
				c-3.18,0.397-5.327,1.183-5.683,2.26c-0.011,0.033-0.02,0.065-0.024,0.093c-0.11,0.621,0.545,1.444,1.775,2.352
				c0.774,0.573,1.75,1.138,2.897,1.681c-0.277,0.81-0.568,1.658-0.871,2.538c-1.421-0.657-2.641-1.358-3.615-2.078
				c-2.074-1.532-3.123-3.241-2.819-4.952c0.028-0.161,0.068-0.318,0.118-0.469c0.711-2.15,3.677-3.55,7.897-4.077
				C161.949,296.707,166.936,296.875,172.182,297.808z"/>
		</g>
		<g>
			<path style="fill-rule:evenodd;clip-rule:evenodd;fill:#FFFFFF;" d="M172.101,307.103c2.664,0.967,5.107,2.055,7.239,3.195
				c3.016,1.61,5.438,3.341,7.014,4.987c1.841,1.924,2.608,3.843,2,5.526c-0.053,0.146-0.121,0.295-0.202,0.447
				c-1.098,2.055-4.365,2.957-8.758,2.751c-0.21-0.01-0.421-0.022-0.636-0.038c0.183-0.887,0.367-1.766,0.555-2.635l0.196,0.01
				c3.36,0.158,5.725-0.277,6.292-1.342c0.016-0.028,0.031-0.063,0.045-0.104c0.229-0.636-0.3-1.614-1.414-2.779
				c-1.379-1.439-3.57-2.992-6.346-4.476c-2.03-1.083-4.357-2.12-6.896-3.04l-0.063-0.021c-4.958-1.792-9.757-2.797-13.505-2.973
				c-3.361-0.157-5.726,0.279-6.294,1.342c-0.015,0.029-0.029,0.064-0.044,0.103c-0.23,0.638,0.301,1.616,1.414,2.781
				c0.639,0.666,1.452,1.356,2.416,2.056l-0.911,2.608c-1.38-0.944-2.537-1.9-3.426-2.826c-1.841-1.924-2.607-3.842-2-5.525
				c0.053-0.147,0.121-0.297,0.202-0.45c1.098-2.056,4.364-2.955,8.758-2.749c4.005,0.186,9.089,1.244,14.299,3.126L172.101,307.103
				z"/>
		</g>
		<g>
			<path style="fill:#FFFFFF;" d="M319.554,354.529c-0.02,0-0.042-0.001-0.063-0.005c-0.244-0.034-0.414-0.261-0.378-0.504
				c4.187-29.462,3.967-46.707,3.689-68.539c-0.062-4.849-0.125-9.893-0.143-15.315c0.186-4.77,1.618-8.207,4.259-10.235
				c4.447-3.415,11.683-2.297,16.736-1.157c0.239,0.055,0.391,0.293,0.337,0.534c-0.055,0.238-0.293,0.392-0.533,0.337
				c-4.88-1.103-11.848-2.196-15.998,0.992c-2.42,1.859-3.735,5.07-3.91,9.545c0.017,5.4,0.082,10.441,0.143,15.289
				c0.278,21.87,0.499,39.146-3.698,68.676C319.964,354.367,319.773,354.529,319.554,354.529z M200.154,278.694
				c-0.07,0-0.14-0.017-0.206-0.052c-0.218-0.112-0.303-0.381-0.19-0.6c0.747-1.433,3.726-7.715,3.563-10.002
				c-0.151-2.143-2.538-3.519-2.563-3.532c-0.144-0.081-0.23-0.235-0.226-0.399c0.19-7.707-5.799-9.019-5.86-9.031
				c-0.159-0.032-0.288-0.149-0.337-0.304c-0.011-0.035-1.102-3.536-2.15-5.169c-0.794-1.236-3.414-1.58-4.357-1.607
				c-0.12-0.003-0.234-0.056-0.315-0.143c-0.037-0.04-3.708-4.033-4.577-4.854c-0.858-0.812-4.084-2.341-6.894-0.099
				c-3.05,2.435-12.127,12.402-12.218,12.502c-0.108,0.119-0.271,0.169-0.428,0.135c-0.156-0.035-0.281-0.151-0.328-0.305
				c-0.613-2.003-3.278-6.738-7.208-7.76c-2.842-0.734-4.152,0.363-4.447,1.048c-0.097,0.226-0.358,0.331-0.585,0.233
				c-0.226-0.098-0.33-0.358-0.232-0.585c0.427-0.996,2.066-2.446,5.488-1.558c4.177,1.084,6.715,5.583,7.574,7.651
				c1.963-2.144,9.102-9.884,11.828-12.059c3.208-2.564,6.879-0.97,8.062,0.147c0.811,0.765,3.835,4.043,4.497,4.764
				c0.801,0.049,3.823,0.347,4.89,2.006c0.962,1.499,1.907,4.314,2.177,5.151c1.231,0.366,6.375,2.329,6.315,9.6
				c0.683,0.444,2.627,1.897,2.782,4.104c0.206,2.902-3.622,10.401-3.661,10.478C200.469,278.607,200.314,278.694,200.154,278.694z
				 M215.562,274.067c-0.167,0-0.327-0.093-0.403-0.254c-0.105-0.224-0.011-0.489,0.211-0.595
				c18.866-8.959,29.022-29.334,27.169-54.508l-0.324-4.474c-0.302-4.208-0.606-8.456-0.97-12.694
				c-0.034-0.082-0.039-0.17-0.022-0.252c-0.895-10.365-2.15-20.645-4.583-30.065c-1.173,1.314-2.534,2.473-4.076,3.458
				c-0.207,0.131-0.482,0.07-0.615-0.138c-0.132-0.207-0.071-0.483,0.136-0.614c12.978-8.274,8.579-25.762,6.922-30.926
				c-2.967-9.242-8.723-17.138-12.295-16.989c-1.697,0.093-2.476,2.158-2.83,3.877c-0.05,0.241-0.287,0.393-0.526,0.347
				c-0.241-0.051-0.396-0.286-0.345-0.527c0.756-3.669,2.404-4.519,3.653-4.586c4.086-0.238,10.004,7.679,13.192,17.606
				c3.625,11.295,2.638,21.165-2.513,27.655c2.517,9.509,3.811,19.889,4.727,30.357c0.127-0.033,0.251-0.056,0.374-0.068
				c2.519-0.249,6.335,4.369,6.811,8.26c0.434,3.52-0.657,13.274-5.612,14.835c0.225,23.18-9.979,41.748-27.889,50.252
				C215.691,274.054,215.626,274.067,215.562,274.067z M242.149,201.655c0.357,4.179,0.657,8.367,0.955,12.518l0.323,4.474
				c0.104,1.409,0.171,2.806,0.201,4.184c4.288-1.68,5.093-10.938,4.743-13.787c-0.444-3.626-3.948-7.684-5.833-7.481
				C242.415,201.576,242.285,201.607,242.149,201.655z M308.137,251.895c-0.058,0-0.116-0.01-0.173-0.035
				c-0.227-0.096-0.333-0.357-0.238-0.583l10.618-25.293c0.037-0.091,0.104-0.166,0.187-0.214
				c1.169-0.676,28.617-16.579,29.409-16.961c0.222-0.105,0.488-0.013,0.595,0.209c0.106,0.223,0.013,0.488-0.209,0.596
				c-0.607,0.291-19.3,11.105-29.218,16.853l-10.56,25.155C308.476,251.792,308.31,251.895,308.137,251.895z M264.498,209.997
				c-0.059,0-0.119-0.013-0.177-0.037c-0.227-0.099-0.33-0.36-0.231-0.586c0.497-1.141,12.191-27.952,13.514-30.532
				c1.403-2.736,4.688-3.752,4.827-3.794l25.291-9.585c0.23-0.087,0.487,0.028,0.574,0.259c0.087,0.23-0.028,0.487-0.259,0.574
				l-25.319,9.596c-0.06,0.019-3.094,0.963-4.321,3.357c-1.31,2.556-13.37,30.203-13.492,30.482
				C264.833,209.898,264.669,209.997,264.498,209.997z M318.496,151.159c-0.092,0-0.185-0.029-0.266-0.089
				c-0.197-0.145-0.239-0.426-0.092-0.623c19.298-26.048,38.54-44.189,57.189-53.922c20.631-10.766,38.68-11.604,48.282-2.242
				c9.537,9.297,9.169,26.543-1.008,47.317c-0.108,0.219-0.375,0.311-0.597,0.203c-0.221-0.108-0.311-0.374-0.204-0.595
				c9.997-20.406,10.43-37.277,1.187-46.288c-9.313-9.078-26.975-8.184-47.247,2.394c-18.529,9.67-37.668,27.725-56.886,53.664
				C318.766,151.096,318.632,151.159,318.496,151.159z"/>
		</g>
	</g>
	<g>
		<path style="fill-rule:evenodd;clip-rule:evenodd;fill:#FF75CA;" d="M72.565,236.444c20.064,0,36.428-16.363,36.428-36.428
			c0-20.062-16.364-36.426-36.428-36.426c-20.063,0-36.426,16.364-36.426,36.426C36.139,220.081,52.502,236.444,72.565,236.444z"/>
		<path style="fill:#FFFFFF;" d="M72.565,237.336c-20.577,0-37.317-16.742-37.317-37.319c0-20.577,16.741-37.316,37.317-37.316
			c20.578,0,37.318,16.739,37.318,37.316C109.883,220.594,93.143,237.336,72.565,237.336z M72.565,164.481
			c-19.594,0-35.535,15.941-35.535,35.535s15.941,35.538,35.535,35.538c19.596,0,35.537-15.943,35.537-35.538
			S92.161,164.481,72.565,164.481z"/>
	</g>
	<g>
		<path style="fill-rule:evenodd;clip-rule:evenodd;fill:#FF75CA;" d="M422.674,350.082c20.063,0,36.427-16.364,36.427-36.426
			c0-20.065-16.363-36.428-36.427-36.428c-20.063,0-36.427,16.363-36.427,36.428C386.248,333.718,402.611,350.082,422.674,350.082z"
			/>
		<path style="fill:#FFFFFF;" d="M422.674,350.973c-20.577,0-37.317-16.74-37.317-37.316c0-20.578,16.74-37.318,37.317-37.318
			c20.576,0,37.317,16.74,37.317,37.318C459.992,334.232,443.25,350.973,422.674,350.973z M422.674,278.119
			c-19.594,0-35.536,15.942-35.536,35.537c0,19.594,15.942,35.535,35.536,35.535c19.595,0,35.536-15.941,35.536-35.535
			C458.21,294.061,442.269,278.119,422.674,278.119z"/>
	</g>
	<g>
		<g>
			<path style="fill:#FFFFFF;" d="M49.948,192.75c-0.061,0-0.124-0.008-0.187-0.02l-1.873-0.399
				c-0.482-0.103-0.788-0.576-0.686-1.058c0.104-0.483,0.576-0.792,1.059-0.687l1.872,0.401c0.482,0.102,0.788,0.576,0.686,1.057
				C50.729,192.463,50.359,192.75,49.948,192.75z M59.423,178.992c-0.291,0-0.577-0.143-0.748-0.405l-1.043-1.607
				c-0.268-0.414-0.149-0.965,0.264-1.233c0.412-0.269,0.964-0.15,1.232,0.264l1.043,1.608c0.268,0.412,0.149,0.965-0.265,1.231
				C59.758,178.947,59.59,178.992,59.423,178.992z M75.85,175.967c-0.061,0-0.124-0.007-0.187-0.02
				c-0.481-0.104-0.789-0.578-0.685-1.059l0.398-1.874c0.104-0.481,0.577-0.789,1.058-0.684c0.481,0.102,0.788,0.575,0.685,1.056
				l-0.4,1.875C76.632,175.68,76.261,175.967,75.85,175.967z"/>
		</g>
		<g>
			<path style="fill-rule:evenodd;clip-rule:evenodd;fill:#FFFFFF;" d="M64.102,215.264l6.184,1.322
				c1.104,0.236,1.813,1.332,1.578,2.435l-0.803,3.762c-0.236,1.105-1.331,1.814-2.435,1.578l-6.185-1.321
				c-1.104-0.235-1.814-1.331-1.578-2.436l0.805-3.762C61.903,215.739,62.998,215.027,64.102,215.264z"/>
		</g>
		<g>
			<path style="fill-rule:evenodd;clip-rule:evenodd;fill:#FF75CA;" d="M55.459,193.548c1.864-8.724,10.446-14.285,19.169-12.422
				l-1.368,6.403c-0.167,0.78,0.33,1.547,1.109,1.713c0.325,0.07,0.646,0.025,0.925-0.109c0.492-0.354,1.127-0.508,1.769-0.371
				c1.203,0.257,1.972,1.442,1.714,2.646c-0.257,1.206-1.442,1.973-2.646,1.716c-0.64-0.138-1.158-0.536-1.462-1.059
				c-0.199-0.236-0.474-0.41-0.799-0.48c-0.779-0.166-1.546,0.332-1.712,1.11l-0.903,4.227l-6.36-1.358
				c-0.779-0.167-1.547,0.331-1.713,1.109c-0.069,0.326-0.024,0.648,0.109,0.925c0.356,0.494,0.508,1.128,0.371,1.77
				c-0.257,1.203-1.442,1.972-2.646,1.715c-1.206-0.258-1.973-1.441-1.716-2.648c0.138-0.64,0.537-1.156,1.062-1.463
				c0.235-0.198,0.408-0.475,0.478-0.799c0.167-0.778-0.33-1.545-1.109-1.711L55.459,193.548z"/>
		</g>
		<g>
			<path style="fill-rule:evenodd;clip-rule:evenodd;fill:#FF75CA;" d="M87.049,200.296c-0.851,3.98-3.1,7.302-6.122,9.56l0,0
				c-5.405,4.614-5.551,6.726-6.328,7.761c-0.776,1.035-1.174,2.183-2.825,1.829c-1.65-0.352-5.099-1.088-5.099-1.088l0,0
				l2.572-12.044c0.167-0.778-0.33-1.546-1.109-1.714c-0.325-0.068-0.646-0.022-0.924,0.111c-0.493,0.354-1.127,0.507-1.769,0.37
				c-1.205-0.258-1.972-1.442-1.715-2.648c0.257-1.203,1.442-1.973,2.646-1.713c0.64,0.135,1.157,0.535,1.463,1.061
				c0.199,0.235,0.474,0.409,0.799,0.477c0.778,0.168,1.546-0.329,1.713-1.107l0.903-4.23l6.359,1.359
				c0.78,0.166,1.276,0.934,1.109,1.714c-0.069,0.324-0.242,0.6-0.478,0.799c-0.525,0.305-0.924,0.822-1.061,1.463
				c-0.258,1.203,0.511,2.389,1.714,2.645c1.205,0.258,2.39-0.51,2.647-1.715c0.137-0.64-0.017-1.275-0.371-1.768
				c-0.133-0.279-0.18-0.6-0.11-0.925c0.167-0.78,0.933-1.276,1.713-1.11L87.049,200.296z"/>
		</g>
		<g>
			<path style="fill-rule:evenodd;clip-rule:evenodd;fill:#FF75CA;" d="M66.675,218.357l-5.099-1.091
				c-1.65-0.352-1.546-1.562-1.832-2.824c-0.285-1.263,0.444-3.248-2.605-9.669h0.001c-1.835-3.296-2.531-7.247-1.682-11.226
				l4.271,0.913c0.779,0.166,1.276,0.933,1.109,1.711c-0.069,0.324-0.242,0.601-0.478,0.799c-0.525,0.307-0.924,0.823-1.062,1.463
				c-0.256,1.206,0.511,2.39,1.716,2.648c1.204,0.257,2.388-0.512,2.646-1.715c0.137-0.642-0.016-1.275-0.371-1.77
				c-0.133-0.276-0.179-0.599-0.109-0.925c0.166-0.778,0.933-1.276,1.713-1.109l6.36,1.358l-0.903,4.23
				c-0.167,0.778-0.935,1.275-1.713,1.107c-0.325-0.067-0.6-0.241-0.799-0.477c-0.306-0.525-0.823-0.926-1.463-1.061
				c-1.204-0.26-2.389,0.51-2.646,1.713c-0.257,1.205,0.51,2.39,1.715,2.648c0.642,0.137,1.275-0.017,1.769-0.37
				c0.278-0.134,0.6-0.18,0.924-0.111c0.78,0.168,1.277,0.936,1.109,1.714L66.675,218.357z"/>
		</g>
		<g>
			<g>
				<path style="fill:#FFFFFF;" d="M61.483,201.516c-0.183,0-0.368-0.018-0.548-0.059c-1.409-0.301-2.311-1.693-2.011-3.104
					c0.154-0.719,0.607-1.345,1.244-1.714c0.125-0.113,0.245-0.315,0.295-0.548c0.121-0.57-0.244-1.133-0.815-1.256l-4.269-0.912
					c-0.1-0.021-0.187-0.081-0.242-0.166c-0.056-0.086-0.074-0.191-0.054-0.291c1.62-7.582,8.415-13.085,16.155-13.085
					c1.159,0,2.326,0.123,3.47,0.368c0.1,0.021,0.188,0.082,0.243,0.167c0.055,0.086,0.074,0.188,0.053,0.289l-1.368,6.404
					c-0.121,0.571,0.243,1.134,0.814,1.257c0.231,0.05,0.466,0.02,0.678-0.08c0.521-0.385,1.294-0.555,2.016-0.399
					c0.682,0.145,1.267,0.548,1.646,1.134c0.379,0.585,0.508,1.285,0.363,1.969c-0.294,1.378-1.715,2.305-3.102,2.008
					c-0.72-0.152-1.344-0.605-1.715-1.243c-0.113-0.123-0.315-0.246-0.547-0.294c-0.564-0.126-1.138,0.255-1.256,0.814l-0.903,4.227
					c-0.044,0.208-0.248,0.339-0.456,0.296l-6.361-1.359c-0.565-0.12-1.137,0.257-1.256,0.814c-0.05,0.232-0.022,0.466,0.08,0.679
					c0.396,0.54,0.554,1.295,0.4,2.015C63.781,200.645,62.707,201.516,61.483,201.516z M55.919,193.252l3.891,0.832
					c0.985,0.211,1.615,1.184,1.405,2.169c-0.086,0.399-0.295,0.751-0.606,1.013c-0.504,0.299-0.824,0.741-0.933,1.248
					c-0.104,0.482-0.012,0.977,0.256,1.39c0.268,0.415,0.682,0.699,1.163,0.802c0.983,0.214,1.984-0.445,2.191-1.42
					c0.108-0.508-0.004-1.04-0.308-1.463c-0.211-0.426-0.259-0.831-0.173-1.23c0.205-0.963,1.199-1.614,2.168-1.404l5.985,1.279
					l0.822-3.852c0.206-0.962,1.199-1.616,2.168-1.405c0.399,0.085,0.75,0.295,1.013,0.606c0.3,0.505,0.742,0.824,1.249,0.932
					c0.98,0.212,1.982-0.444,2.19-1.419c0.104-0.481,0.012-0.976-0.256-1.389c-0.268-0.414-0.681-0.697-1.163-0.801
					c-0.512-0.113-1.041,0-1.464,0.307c-0.45,0.227-0.833,0.258-1.23,0.174c-0.985-0.211-1.614-1.184-1.404-2.17l1.286-6.021
					c-0.97-0.184-1.955-0.276-2.933-0.276C63.986,181.151,57.605,186.217,55.919,193.252z"/>
			</g>
			<g>
				<path style="fill:#FFFFFF;" d="M72.341,219.895c-0.202,0-0.419-0.024-0.647-0.072l-5.099-1.09
					c-0.1-0.021-0.188-0.081-0.243-0.166c-0.055-0.086-0.074-0.189-0.053-0.289l1.175-5.498c0.121-0.566-0.465-1.182-0.815-1.257
					c-0.313-0.067-0.359-0.079-0.588,0.035c-0.002,0.003-0.088,0.046-0.09,0.046c-0.472,0.348-0.992,0.615-2.015,0.398
					c-1.152-0.246-2.305-1.726-2.01-3.103c0.305-1.433,1.996-2.248,3.102-2.011c1.051,0.227,1.374,0.658,1.715,1.244
					c0.151,0.178,0.186,0.219,0.547,0.297c0.341,0.075,1.139-0.259,1.257-0.814l2.302-10.774c0.021-0.099,0.081-0.187,0.167-0.241
					c0.085-0.056,0.19-0.076,0.289-0.053l6.36,1.356c0.478,0.104,0.886,0.385,1.152,0.794c0.266,0.41,0.355,0.9,0.253,1.377
					c-0.085,0.398-0.295,0.749-0.607,1.012c-0.504,0.301-0.824,0.741-0.932,1.25c-0.103,0.481-0.012,0.975,0.255,1.389
					c0.27,0.413,0.682,0.697,1.164,0.8c0.981,0.215,1.982-0.444,2.191-1.418c0.108-0.509-0.004-1.042-0.308-1.464
					c-0.21-0.425-0.258-0.83-0.173-1.229c0.206-0.965,1.198-1.616,2.168-1.406l4.271,0.912c0.1,0.021,0.187,0.082,0.242,0.167
					c0.056,0.086,0.074,0.19,0.054,0.289c-0.838,3.916-3.064,7.393-6.269,9.787c-4.111,3.511-5.117,5.536-5.718,6.747
					c-0.189,0.377-0.336,0.676-0.531,0.934c-0.125,0.168-0.24,0.339-0.354,0.505C74.04,219.108,73.509,219.895,72.341,219.895z
					 M67.131,218.063l4.723,1.008c1.036,0.219,1.435-0.223,2.063-1.151c0.119-0.177,0.241-0.355,0.374-0.534
					c0.153-0.205,0.288-0.475,0.458-0.818c0.627-1.262,1.677-3.375,5.928-7.004c2.971-2.221,5.054-5.391,5.911-8.973l-3.89-0.829
					c-0.565-0.124-1.138,0.256-1.258,0.814c-0.049,0.231-0.021,0.465,0.081,0.679c0.395,0.538,0.554,1.294,0.4,2.013
					c-0.295,1.38-1.718,2.307-3.103,2.012c-0.683-0.146-1.269-0.549-1.648-1.135c-0.379-0.587-0.508-1.285-0.363-1.968
					c0.153-0.72,0.605-1.344,1.243-1.716c0.125-0.111,0.247-0.314,0.296-0.547c0.059-0.276,0.007-0.559-0.146-0.796
					c-0.155-0.237-0.392-0.401-0.668-0.46l-5.984-1.277l-2.221,10.396c-0.206,0.963-1.399,1.568-2.168,1.405
					c-0.583-0.126-0.751-0.286-0.957-0.539c-0.012-0.017-0.084-0.105-0.095-0.122c-0.255-0.441-0.411-0.708-1.21-0.878
					c-0.734-0.154-1.988,0.472-2.19,1.419c-0.213,0.996,0.706,2.037,1.419,2.191c0.705,0.151,0.949,0.063,1.465-0.307
					c0.016-0.013,0.117-0.063,0.136-0.072c0.239-0.12,0.489-0.23,1.092-0.101c0.72,0.153,1.627,1.131,1.406,2.168L67.131,218.063z"
					/>
			</g>
			<g>
				<path style="fill:#FFFFFF;" d="M66.675,218.742c-0.025,0-0.053-0.003-0.08-0.01l-5.099-1.089
					c-1.629-0.349-1.832-1.499-2.01-2.513c-0.035-0.198-0.07-0.4-0.117-0.604c-0.071-0.318-0.085-0.65-0.102-1.072
					c-0.054-1.35-0.145-3.608-2.475-8.516c-1.935-3.476-2.546-7.557-1.71-11.473c0.022-0.099,0.082-0.186,0.167-0.242
					c0.086-0.055,0.189-0.072,0.29-0.053l4.27,0.912c0.985,0.211,1.615,1.184,1.405,2.169c-0.086,0.399-0.295,0.751-0.606,1.013
					c-0.504,0.299-0.824,0.741-0.933,1.248c-0.104,0.482-0.012,0.977,0.256,1.39c0.268,0.415,0.682,0.699,1.163,0.802
					c0.996,0.211,1.978-0.424,2.191-1.42c0.108-0.508-0.004-1.04-0.308-1.463c-0.211-0.426-0.259-0.831-0.173-1.23
					c0.102-0.477,0.383-0.885,0.793-1.15c0.409-0.267,0.898-0.357,1.375-0.254l6.36,1.359c0.207,0.043,0.34,0.248,0.296,0.455
					c-0.044,0.208-0.248,0.339-0.456,0.296l-6.361-1.359c-0.276-0.061-0.559-0.008-0.796,0.148c-0.237,0.153-0.4,0.39-0.459,0.666
					c-0.05,0.232-0.022,0.466,0.08,0.679c0.396,0.54,0.554,1.295,0.4,2.015c-0.301,1.409-1.689,2.315-3.102,2.011
					c-0.683-0.146-1.268-0.549-1.647-1.135c-0.38-0.587-0.509-1.285-0.363-1.969c0.154-0.719,0.607-1.345,1.244-1.714
					c0.125-0.113,0.245-0.315,0.295-0.548c0.121-0.57-0.244-1.133-0.815-1.256l-3.89-0.832c-0.681,3.618-0.076,7.362,1.718,10.584
					c2.408,5.07,2.502,7.429,2.56,8.837c0.015,0.382,0.028,0.684,0.084,0.933c0.048,0.216,0.086,0.431,0.123,0.641
					c0.175,0.994,0.29,1.653,1.413,1.895l5.099,1.089c0.208,0.044,0.339,0.247,0.295,0.456
					C67.012,218.619,66.853,218.742,66.675,218.742z"/>
			</g>
		</g>
		<g>
			<path style="fill:#FFFFFF;" d="M77.918,225.009c-0.419,0-0.792-0.298-0.874-0.724l-0.361-1.883
				c-0.091-0.484,0.225-0.951,0.709-1.043c0.481-0.088,0.95,0.225,1.042,0.707l0.359,1.882c0.092,0.485-0.225,0.952-0.708,1.043
				C78.03,225.004,77.974,225.009,77.918,225.009z M93.099,215.023c-0.172,0-0.347-0.05-0.499-0.153l-1.586-1.075
				c-0.407-0.276-0.513-0.831-0.236-1.237c0.275-0.408,0.83-0.514,1.238-0.237l1.585,1.075c0.407,0.276,0.513,0.832,0.236,1.238
				C93.665,214.887,93.385,215.023,93.099,215.023z M94.892,197.59c-0.419,0-0.792-0.297-0.874-0.725
				c-0.093-0.483,0.224-0.949,0.708-1.042l1.881-0.359c0.484-0.093,0.951,0.224,1.043,0.706c0.093,0.484-0.224,0.952-0.707,1.043
				l-1.883,0.361C95.003,197.584,94.947,197.59,94.892,197.59z"/>
		</g>
	</g>
	<g>
		<g>
			<path style="fill:#FFFFFF;" d="M422.674,324.435c-5.944,0-10.779-4.837-10.779-10.779c0-5.945,4.835-10.781,10.779-10.781
				c4.541,0,8.621,2.871,10.151,7.145c0.082,0.232-0.038,0.487-0.27,0.57c-0.23,0.083-0.486-0.037-0.569-0.269
				c-1.404-3.921-5.146-6.555-9.313-6.555c-5.453,0-9.89,4.436-9.89,9.89c0,5.452,4.437,9.887,9.89,9.887
				c5.452,0,9.889-4.435,9.889-9.887c0-0.247,0.199-0.447,0.445-0.447c0.246,0,0.445,0.2,0.445,0.447
				C433.454,319.599,428.619,324.435,422.674,324.435z"/>
		</g>
		<g>
			<path style="fill:#FFFFFF;" d="M422.674,331.039c-9.585,0-17.384-7.8-17.384-17.383c0-9.587,7.799-17.385,17.384-17.385
				c8.177,0,15.148,5.56,16.954,13.521c0.053,0.239-0.096,0.479-0.336,0.533c-0.241,0.055-0.479-0.096-0.534-0.337
				c-1.712-7.553-8.326-12.827-16.083-12.827c-9.094,0-16.492,7.4-16.492,16.494c0,9.093,7.398,16.49,16.492,16.49
				c9.094,0,16.493-7.398,16.493-16.49c0-0.247,0.199-0.447,0.445-0.447c0.246,0,0.445,0.2,0.445,0.447
				C440.058,323.239,432.26,331.039,422.674,331.039z"/>
		</g>
		<g>
			<path style="fill-rule:evenodd;clip-rule:evenodd;fill:#FFFFFF;" d="M422.674,316.07c1.334,0,2.415-1.08,2.415-2.414
				c0-1.335-1.082-2.416-2.415-2.416c-1.334,0-2.415,1.081-2.415,2.416C420.259,314.99,421.34,316.07,422.674,316.07z"/>
		</g>
		<g>
			<path style="fill:#FFFFFF;" d="M422.674,338.783c-13.856,0-25.128-11.272-25.128-25.127c0-13.858,11.272-25.129,25.128-25.129
				c11.819,0,21.895,8.037,24.505,19.545c0.077,0.336-0.134,0.67-0.471,0.746c-0.334,0.078-0.669-0.135-0.745-0.47
				c-2.481-10.936-12.058-18.574-23.29-18.574c-13.168,0-23.88,10.712-23.88,23.882c0,13.168,10.712,23.881,23.88,23.881
				c13.167,0,23.88-10.713,23.88-23.881c0-0.345,0.279-0.625,0.624-0.625c0.344,0,0.624,0.28,0.624,0.625
				C447.802,327.511,436.529,338.783,422.674,338.783z"/>
		</g>
		<g>
			<path style="fill:#FFFFFF;" d="M450.198,314.279h-27.524c-0.344,0-0.623-0.279-0.623-0.623c0-0.345,0.279-0.625,0.623-0.625
				h27.524c0.345,0,0.625,0.28,0.625,0.625C450.823,314,450.543,314.279,450.198,314.279z"/>
		</g>
		<g>
			<path style="fill:#FFFFFF;" d="M450.198,314.279c-0.16,0-0.319-0.063-0.44-0.184c-0.244-0.244-0.244-0.639,0-0.883l3.757-3.756
				c0.244-0.244,0.638-0.244,0.882,0c0.244,0.244,0.244,0.639,0,0.882l-3.758,3.757
				C450.518,314.217,450.358,314.279,450.198,314.279z"/>
		</g>
		<g>
			<path style="fill:#FFFFFF;" d="M453.956,318.035c-0.16,0-0.319-0.061-0.441-0.182l-3.757-3.758c-0.244-0.244-0.244-0.639,0-0.883
				c0.243-0.242,0.639-0.242,0.881,0l3.758,3.76c0.244,0.241,0.244,0.638,0,0.881C454.275,317.975,454.116,318.035,453.956,318.035z
				"/>
		</g>
	</g>
	<g>
		<g>
			<g>
				<g>
					<g>
						<path style="fill-rule:evenodd;clip-rule:evenodd;fill:#59B2FF;" d="M363.89,443.482h66.17c1.124,0,2.044,0.919,2.044,2.043
							l0,0c0,1.125-0.92,2.045-2.044,2.045h-66.17c-1.125,0-2.044-0.92-2.044-2.045l0,0
							C361.846,444.401,362.765,443.482,363.89,443.482z"/>
					</g>
					<g>
						<path style="fill-rule:evenodd;clip-rule:evenodd;fill:#59B2FF;" d="M438.75,443.482h22.185c1.123,0,2.042,0.919,2.042,2.043
							l0,0c0,1.125-0.919,2.045-2.042,2.045H438.75c-1.125,0-2.044-0.92-2.044-2.045l0,0
							C436.706,444.401,437.625,443.482,438.75,443.482z"/>
					</g>
				</g>
				<g>
					<g>
						<path style="fill-rule:evenodd;clip-rule:evenodd;fill:#BFE1FF;" d="M450.665,432.952h3.319c1.125,0,2.043,0.918,2.043,2.044
							l0,0c0,1.123-0.918,2.043-2.043,2.043h-3.319c-1.123,0-2.042-0.92-2.042-2.043l0,0
							C448.623,433.87,449.542,432.952,450.665,432.952z"/>
					</g>
					<g>
						<path style="fill-rule:evenodd;clip-rule:evenodd;fill:#BFE1FF;" d="M438.318,432.952h3.318c1.125,0,2.044,0.918,2.044,2.044
							l0,0c0,1.123-0.919,2.043-2.044,2.043h-3.318c-1.124,0-2.044-0.92-2.044-2.043l0,0
							C436.274,433.87,437.194,432.952,438.318,432.952z"/>
					</g>
					<g>
						<path style="fill-rule:evenodd;clip-rule:evenodd;fill:#BFE1FF;" d="M418.564,432.952h10.726c1.124,0,2.043,0.918,2.043,2.044
							l0,0c0,1.123-0.919,2.043-2.043,2.043h-10.726c-1.124,0-2.044-0.92-2.044-2.043l0,0
							C416.52,433.87,417.44,432.952,418.564,432.952z"/>
					</g>
					<g>
						<path style="fill-rule:evenodd;clip-rule:evenodd;fill:#BFE1FF;" d="M391.41,432.952h17.76c1.124,0,2.043,0.918,2.043,2.044
							l0,0c0,1.123-0.919,2.043-2.043,2.043h-17.76c-1.125,0-2.043-0.92-2.043-2.043l0,0
							C389.367,433.87,390.286,432.952,391.41,432.952z"/>
					</g>
				</g>
				<g>
					<g>
						<path style="fill-rule:evenodd;clip-rule:evenodd;fill:#BFE1FF;" d="M431.961,454.014h3.319c1.124,0,2.043,0.919,2.043,2.045
							l0,0c0,1.123-0.919,2.042-2.043,2.042h-3.319c-1.124,0-2.043-0.919-2.043-2.042l0,0
							C429.918,454.933,430.837,454.014,431.961,454.014z"/>
					</g>
					<g>
						<path style="fill-rule:evenodd;clip-rule:evenodd;fill:#BFE1FF;" d="M419.614,454.014h3.319c1.125,0,2.043,0.919,2.043,2.045
							l0,0c0,1.123-0.918,2.042-2.043,2.042h-3.319c-1.124,0-2.043-0.919-2.043-2.042l0,0
							C417.57,454.933,418.49,454.014,419.614,454.014z"/>
					</g>
					<g>
						<path style="fill-rule:evenodd;clip-rule:evenodd;fill:#BFE1FF;" d="M399.86,454.014h10.725c1.124,0,2.044,0.919,2.044,2.045
							l0,0c0,1.123-0.92,2.042-2.044,2.042H399.86c-1.124,0-2.043-0.919-2.043-2.042l0,0
							C397.816,454.933,398.736,454.014,399.86,454.014z"/>
					</g>
					<g>
						<path style="fill-rule:evenodd;clip-rule:evenodd;fill:#BFE1FF;" d="M372.706,454.014h17.76c1.125,0,2.044,0.919,2.044,2.045
							l0,0c0,1.123-0.919,2.042-2.044,2.042h-17.76c-1.125,0-2.044-0.919-2.044-2.042l0,0
							C370.663,454.933,371.581,454.014,372.706,454.014z"/>
					</g>
				</g>
			</g>
			<g>
				<g>
					<g>
						<path style="fill-rule:evenodd;clip-rule:evenodd;fill:#59B2FF;" d="M47.552,140.987V74.816c0-1.125,0.919-2.043,2.043-2.043
							l0,0c1.124,0,2.044,0.918,2.044,2.043v66.171c0,1.123-0.92,2.043-2.044,2.043l0,0C48.471,143.03,47.552,142.11,47.552,140.987
							z"/>
					</g>
					<g>
						<path style="fill-rule:evenodd;clip-rule:evenodd;fill:#59B2FF;" d="M47.552,66.126V43.942c0-1.124,0.919-2.043,2.043-2.043
							l0,0c1.124,0,2.044,0.919,2.044,2.043v22.184c0,1.125-0.92,2.044-2.044,2.044l0,0C48.471,68.17,47.552,67.251,47.552,66.126z"
							/>
					</g>
				</g>
				<g>
					<g>
						<path style="fill-rule:evenodd;clip-rule:evenodd;fill:#BFE1FF;" d="M37.021,54.211v-3.319c0-1.124,0.919-2.044,2.044-2.044
							l0,0c1.124,0,2.043,0.92,2.043,2.044v3.319c0,1.124-0.919,2.044-2.043,2.044l0,0C37.94,56.255,37.021,55.335,37.021,54.211z"
							/>
					</g>
					<g>
						<path style="fill-rule:evenodd;clip-rule:evenodd;fill:#BFE1FF;" d="M37.021,66.559V63.24c0-1.125,0.919-2.044,2.044-2.044
							l0,0c1.124,0,2.043,0.919,2.043,2.044v3.318c0,1.124-0.919,2.044-2.043,2.044l0,0C37.94,68.603,37.021,67.683,37.021,66.559z"
							/>
					</g>
					<g>
						<path style="fill-rule:evenodd;clip-rule:evenodd;fill:#BFE1FF;" d="M37.021,86.313V75.588c0-1.125,0.919-2.044,2.044-2.044
							l0,0c1.124,0,2.043,0.919,2.043,2.044v10.725c0,1.123-0.919,2.043-2.043,2.043l0,0C37.94,88.355,37.021,87.436,37.021,86.313z
							"/>
					</g>
					<g>
						<path style="fill-rule:evenodd;clip-rule:evenodd;fill:#BFE1FF;" d="M37.021,113.467V95.706c0-1.124,0.919-2.044,2.044-2.044
							l0,0c1.124,0,2.043,0.92,2.043,2.044v17.761c0,1.124-0.919,2.044-2.043,2.044l0,0
							C37.94,115.511,37.021,114.591,37.021,113.467z"/>
					</g>
				</g>
				<g>
					<g>
						<path style="fill-rule:evenodd;clip-rule:evenodd;fill:#BFE1FF;" d="M58.083,72.914v-3.318c0-1.124,0.919-2.043,2.043-2.043
							l0,0c1.124,0,2.043,0.919,2.043,2.043v3.318c0,1.125-0.919,2.045-2.043,2.045l0,0C59.002,74.959,58.083,74.039,58.083,72.914z
							"/>
					</g>
					<g>
						<path style="fill-rule:evenodd;clip-rule:evenodd;fill:#BFE1FF;" d="M58.083,85.262v-3.318c0-1.124,0.919-2.043,2.043-2.043
							l0,0c1.124,0,2.043,0.919,2.043,2.043v3.318c0,1.126-0.919,2.043-2.043,2.043l0,0C59.002,87.305,58.083,86.388,58.083,85.262z
							"/>
					</g>
					<g>
						<path style="fill-rule:evenodd;clip-rule:evenodd;fill:#BFE1FF;" d="M58.083,105.018V94.29c0-1.123,0.919-2.042,2.043-2.042
							l0,0c1.124,0,2.043,0.919,2.043,2.042v10.728c0,1.123-0.919,2.043-2.043,2.043l0,0
							C59.002,107.061,58.083,106.141,58.083,105.018z"/>
					</g>
					<g>
						<path style="fill-rule:evenodd;clip-rule:evenodd;fill:#BFE1FF;" d="M58.083,132.17v-17.76c0-1.123,0.919-2.043,2.043-2.043
							l0,0c1.124,0,2.043,0.92,2.043,2.043v17.76c0,1.125-0.919,2.043-2.043,2.043l0,0C59.002,134.213,58.083,133.295,58.083,132.17
							z"/>
					</g>
				</g>
			</g>
		</g>
		<g>
			<g>
				<g>
					<path style="fill-rule:evenodd;clip-rule:evenodd;fill:#BFE1FF;" d="M326.74,59.242v-3.32c0-1.124,0.919-2.041,2.044-2.041l0,0
						c1.124,0,2.043,0.917,2.043,2.041v3.32c0,1.123-0.919,2.043-2.043,2.043l0,0C327.66,61.285,326.74,60.365,326.74,59.242z"/>
				</g>
				<g>
					<path style="fill-rule:evenodd;clip-rule:evenodd;fill:#FF75CA;" d="M340.65,59.242v-3.32c0-1.124,0.92-2.041,2.044-2.041l0,0
						c1.124,0,2.043,0.917,2.043,2.041v3.32c0,1.123-0.919,2.043-2.043,2.043l0,0C341.57,61.285,340.65,60.365,340.65,59.242z"/>
				</g>
				<g>
					<path style="fill-rule:evenodd;clip-rule:evenodd;fill:#BFE1FF;" d="M354.56,59.242v-3.32c0-1.124,0.92-2.041,2.043-2.041l0,0
						c1.125,0,2.043,0.917,2.043,2.041v3.32c0,1.123-0.918,2.043-2.043,2.043l0,0C355.48,61.285,354.56,60.365,354.56,59.242z"/>
				</g>
				<g>
					<path style="fill-rule:evenodd;clip-rule:evenodd;fill:#BFE1FF;" d="M368.47,59.242v-3.32c0-1.124,0.919-2.041,2.043-2.041l0,0
						c1.125,0,2.043,0.917,2.043,2.041v3.32c0,1.123-0.918,2.043-2.043,2.043l0,0C369.39,61.285,368.47,60.365,368.47,59.242z"/>
				</g>
				<g>
					<path style="fill-rule:evenodd;clip-rule:evenodd;fill:#BFE1FF;" d="M382.38,59.242v-3.32c0-1.124,0.919-2.041,2.043-2.041l0,0
						c1.125,0,2.043,0.917,2.043,2.041v3.32c0,1.123-0.918,2.043-2.043,2.043l0,0C383.299,61.285,382.38,60.365,382.38,59.242z"/>
				</g>
			</g>
			<g>
				<g>
					<path style="fill-rule:evenodd;clip-rule:evenodd;fill:#BFE1FF;" d="M65.123,373.283h3.319c1.124,0,2.043,0.92,2.043,2.043l0,0
						c0,1.125-0.919,2.043-2.043,2.043h-3.319c-1.125,0-2.043-0.918-2.043-2.043l0,0C63.08,374.203,63.998,373.283,65.123,373.283z"
						/>
				</g>
				<g>
					<path style="fill-rule:evenodd;clip-rule:evenodd;fill:#FF75CA;" d="M65.123,387.193h3.319c1.124,0,2.043,0.92,2.043,2.043l0,0
						c0,1.126-0.919,2.043-2.043,2.043h-3.319c-1.125,0-2.043-0.917-2.043-2.043l0,0C63.08,388.113,63.998,387.193,65.123,387.193z"
						/>
				</g>
				<g>
					<path style="fill-rule:evenodd;clip-rule:evenodd;fill:#BFE1FF;" d="M65.123,401.104h3.319c1.124,0,2.043,0.919,2.043,2.043
						l0,0c0,1.123-0.919,2.042-2.043,2.042h-3.319c-1.125,0-2.043-0.919-2.043-2.042l0,0
						C63.08,402.023,63.998,401.104,65.123,401.104z"/>
				</g>
				<g>
					<path style="fill-rule:evenodd;clip-rule:evenodd;fill:#BFE1FF;" d="M65.123,415.014h3.319c1.124,0,2.043,0.918,2.043,2.044
						l0,0c0,1.123-0.919,2.043-2.043,2.043h-3.319c-1.125,0-2.043-0.92-2.043-2.043l0,0
						C63.08,415.932,63.998,415.014,65.123,415.014z"/>
				</g>
				<g>
					<path style="fill-rule:evenodd;clip-rule:evenodd;fill:#BFE1FF;" d="M65.123,428.923h3.319c1.124,0,2.043,0.92,2.043,2.044l0,0
						c0,1.125-0.919,2.043-2.043,2.043h-3.319c-1.125,0-2.043-0.918-2.043-2.043l0,0C63.08,429.843,63.998,428.923,65.123,428.923z"
						/>
				</g>
			</g>
		</g>
	</g>
	<g>
		<g>
			<polygon style="fill-rule:evenodd;clip-rule:evenodd;fill:#FFFFFF;" points="94.63,283.38 88.134,283.38 91.382,278.141 			"/>
			<path style="fill:#FFFFFF;" d="M94.652,283.827c-0.007,0-0.015,0-0.022,0h-6.496c-0.162,0-0.311-0.088-0.389-0.23
				c-0.079-0.142-0.075-0.315,0.01-0.45l3.248-5.24c0.163-0.264,0.595-0.264,0.757,0l3.186,5.139
				c0.093,0.084,0.151,0.201,0.151,0.335C95.098,283.626,94.898,283.827,94.652,283.827z M88.935,282.935h4.895l-2.447-3.948
				L88.935,282.935z"/>
		</g>
		<g>
			<path style="fill:#59B2FF;" d="M94.334,292.356c-0.154,0-0.297-0.079-0.379-0.211l-3.248-5.24
				c-0.085-0.136-0.089-0.31-0.011-0.45c0.079-0.142,0.227-0.229,0.389-0.229h6.495c0.161,0,0.311,0.087,0.39,0.229
				c0.078,0.141,0.074,0.313-0.011,0.45l-3.247,5.24C94.631,292.277,94.488,292.356,94.334,292.356z M91.887,287.116l2.447,3.948
				l2.447-3.948H91.887z"/>
		</g>
	</g>
	<g>
		<g>
			<path style="fill-rule:evenodd;clip-rule:evenodd;fill:#59B2FF;" d="M283.522,129.871v4.868c0,0.763-0.62,1.384-1.384,1.384
				h-4.774c-0.764,0-1.384-0.621-1.384-1.384v-4.868h-2.048c-0.764,0-1.384-0.621-1.384-1.385c0-0.363,0.141-0.693,0.371-0.941
				l5.773-6.908c0.489-0.583,1.36-0.661,1.945-0.171c0.069,0.058,0.132,0.12,0.187,0.188l5.805,6.946
				c0.488,0.584,0.412,1.456-0.173,1.946c-0.259,0.216-0.573,0.321-0.887,0.321v0.003H283.522z"/>
			<path style="fill:#FFFFFF;" d="M282.138,136.567h-4.774c-1.009,0-1.83-0.82-1.83-1.828v-4.424h-1.603
				c-1.009,0-1.829-0.82-1.829-1.829c0-0.463,0.174-0.904,0.49-1.244l5.758-6.89c0.621-0.743,1.828-0.852,2.573-0.229
				c0.092,0.079,0.175,0.162,0.247,0.252l5.801,6.94c0.645,0.773,0.543,1.927-0.229,2.573c-0.329,0.273-0.745,0.426-1.173,0.426
				l-1.603,0.001v4.424C283.967,135.747,283.147,136.567,282.138,136.567z M279.751,120.589c-0.278,0-0.54,0.122-0.718,0.334
				l-5.773,6.907c-0.178,0.192-0.267,0.42-0.267,0.656c0,0.518,0.421,0.939,0.938,0.939h2.048c0.247,0,0.446,0.2,0.446,0.446v4.868
				c0,0.517,0.421,0.938,0.938,0.938h4.774c0.518,0,0.938-0.422,0.938-0.938v-4.868c0-0.246,0.199-0.446,0.446-0.446h2.048
				c0.218-0.001,0.433-0.079,0.601-0.22c0.396-0.332,0.448-0.922,0.117-1.319l-5.805-6.945c-0.043-0.053-0.086-0.095-0.134-0.136
				C280.183,120.667,279.97,120.589,279.751,120.589z"/>
		</g>
		<g>
			<path style="fill-rule:evenodd;clip-rule:evenodd;fill:#FF75CA;" d="M277.402,127.788c-0.309,0-0.558-0.251-0.558-0.558
				c0-0.148,0.057-0.282,0.15-0.381l2.329-2.788c0.198-0.236,0.549-0.267,0.786-0.069c0.028,0.023,0.053,0.049,0.075,0.076
				l2.342,2.803c0.197,0.236,0.167,0.588-0.07,0.786c-0.104,0.087-0.231,0.13-0.357,0.13v0.001
				C281.498,127.788,278.002,127.788,277.402,127.788z"/>
			<path style="fill:#FFFFFF;" d="M282.098,128.232h-4.696c-0.553,0-1.003-0.449-1.003-1.002c0-0.257,0.095-0.499,0.269-0.687
				l2.313-2.767c0.342-0.409,1.002-0.47,1.413-0.128c0.023,0.021,0.12,0.118,0.138,0.142l2.336,2.795
				c0.355,0.426,0.299,1.059-0.125,1.413C282.562,128.149,282.332,128.232,282.098,128.232L282.098,128.232z M279.322,124.062
				l0.342,0.286l-2.329,2.787c-0.045,0.155,0.005,0.207,0.067,0.207h4.694c0.018,0,0.048-0.005,0.074-0.026
				c0.046-0.04,0.052-0.11,0.013-0.158l-2.342-2.802L279.322,124.062z"/>
		</g>
	</g>
	<g>
		<g>
			<path style="fill-rule:evenodd;clip-rule:evenodd;fill:#59B2FF;" d="M126.607,265.413v4.87c0,0.764-0.619,1.385-1.383,1.385
				h-4.775c-0.764,0-1.384-0.621-1.384-1.385v-4.87h-2.049c-0.763,0-1.383-0.618-1.383-1.382c0-0.363,0.141-0.694,0.371-0.942
				l5.773-6.907c0.489-0.586,1.361-0.661,1.945-0.171c0.07,0.057,0.132,0.12,0.187,0.188l5.806,6.945
				c0.489,0.586,0.413,1.457-0.173,1.945c-0.258,0.217-0.572,0.321-0.886,0.321v0.002H126.607z"/>
			<path style="fill:#FFFFFF;" d="M125.224,272.112h-4.775c-1.009,0-1.829-0.82-1.829-1.829v-4.423h-1.604
				c-1.007,0-1.828-0.821-1.828-1.829c0-0.462,0.173-0.904,0.489-1.245l5.758-6.891c0.622-0.741,1.828-0.85,2.573-0.227
				c0.09,0.076,0.174,0.16,0.247,0.25l5.802,6.942c0.313,0.374,0.461,0.85,0.417,1.335c-0.043,0.484-0.274,0.924-0.648,1.235
				c-0.313,0.265-0.708,0.415-1.118,0.425c-0.017,0.003-0.035,0.005-0.053,0.005h-1.604v4.423
				C127.052,271.292,126.232,272.112,125.224,272.112z M122.836,256.134c-0.278,0-0.539,0.12-0.717,0.334l-5.773,6.906
				c-0.178,0.192-0.268,0.421-0.268,0.657c0,0.517,0.421,0.938,0.938,0.938h2.049c0.246,0,0.446,0.199,0.446,0.444v4.87
				c0,0.518,0.421,0.938,0.938,0.938h4.775c0.517,0,0.937-0.42,0.937-0.938v-4.87c0-0.245,0.2-0.444,0.446-0.444h2.002
				c0.23-0.016,0.467-0.07,0.646-0.22c0.191-0.159,0.309-0.386,0.331-0.635c0.022-0.249-0.054-0.492-0.213-0.684l-5.807-6.946
				c-0.041-0.051-0.083-0.094-0.129-0.132C123.268,256.212,123.055,256.134,122.836,256.134z"/>
		</g>
		<g>
			<path style="fill-rule:evenodd;clip-rule:evenodd;fill:#FF75CA;" d="M120.488,263.333c-0.309,0-0.559-0.251-0.559-0.561
				c0-0.145,0.057-0.278,0.15-0.38l2.329-2.786c0.197-0.236,0.548-0.267,0.785-0.07c0.028,0.025,0.053,0.049,0.075,0.075
				l2.343,2.805c0.197,0.236,0.165,0.588-0.071,0.783c-0.104,0.088-0.23,0.131-0.357,0.131v0.003
				C124.582,263.333,121.089,263.333,120.488,263.333z"/>
			<path style="fill:#FFFFFF;" d="M125.183,263.777h-4.695c-0.554,0-1.005-0.449-1.005-1.005c0-0.255,0.097-0.497,0.271-0.684
				l2.313-2.769c0.341-0.407,1.002-0.468,1.412-0.126c0.022,0.018,0.117,0.113,0.135,0.136l2.34,2.801
				c0.172,0.204,0.254,0.466,0.229,0.732c-0.024,0.266-0.15,0.509-0.356,0.681C125.646,263.692,125.417,263.776,125.183,263.777
				L125.183,263.777z M122.409,259.606l0.342,0.285l-2.329,2.788c-0.046,0.156,0.004,0.206,0.066,0.206h4.692
				c0.03,0,0.055-0.011,0.076-0.028l0.014-0.155l-2.343-2.804L122.409,259.606z"/>
		</g>
	</g>
	<g>
		<g>
			<path style="fill-rule:evenodd;clip-rule:evenodd;fill:#59B2FF;" d="M402.342,219.359v4.867c0,0.765-0.619,1.385-1.383,1.385
				h-4.775c-0.764,0-1.383-0.62-1.383-1.385v-4.867h-2.049c-0.763,0-1.383-0.62-1.383-1.384c0-0.363,0.141-0.694,0.37-0.942
				l5.773-6.906c0.488-0.584,1.36-0.662,1.944-0.172c0.07,0.058,0.133,0.12,0.188,0.188l5.805,6.945
				c0.49,0.586,0.414,1.458-0.172,1.947c-0.259,0.217-0.573,0.322-0.886,0.322v0.002H402.342z"/>
			<path style="fill:#FFFFFF;" d="M400.959,226.057h-4.775c-1.009,0-1.83-0.82-1.83-1.83v-4.422h-1.602
				c-1.008,0-1.829-0.82-1.829-1.829c0-0.463,0.173-0.905,0.49-1.244l5.758-6.89c0.621-0.744,1.827-0.852,2.573-0.23
				c0.092,0.079,0.175,0.162,0.248,0.253l5.8,6.94c0.313,0.373,0.461,0.847,0.418,1.333c-0.043,0.485-0.273,0.926-0.647,1.239
				c-0.329,0.274-0.745,0.425-1.172,0.425l-1.603,0.003v4.422C402.789,225.236,401.968,226.057,400.959,226.057z M398.573,210.078
				c-0.279,0-0.54,0.123-0.718,0.334l-5.773,6.907c-0.179,0.193-0.268,0.42-0.268,0.656c0,0.518,0.422,0.936,0.938,0.936h2.049
				c0.245,0,0.445,0.201,0.445,0.447v4.867c0,0.518,0.421,0.939,0.938,0.939h4.775c0.518,0,0.938-0.422,0.938-0.939v-4.867
				c0-0.246,0.199-0.447,0.445-0.447h2.049c0.221,0,0.43-0.076,0.601-0.22c0.191-0.159,0.309-0.386,0.331-0.634
				c0.023-0.249-0.055-0.492-0.214-0.684l-5.806-6.945c-0.042-0.053-0.085-0.096-0.131-0.136
				C399.004,210.155,398.791,210.078,398.573,210.078z"/>
		</g>
		<g>
			<path style="fill-rule:evenodd;clip-rule:evenodd;fill:#FF75CA;" d="M396.224,217.277c-0.309,0-0.56-0.252-0.56-0.559
				c0-0.148,0.058-0.28,0.15-0.381l2.329-2.786c0.197-0.236,0.549-0.267,0.785-0.069c0.028,0.023,0.053,0.049,0.075,0.076
				l2.342,2.802c0.197,0.236,0.167,0.588-0.07,0.785c-0.104,0.087-0.23,0.131-0.357,0.131v0.002
				C400.319,217.277,396.825,217.277,396.224,217.277z"/>
			<path style="fill:#FFFFFF;" d="M400.919,217.722h-4.695c-0.554,0-1.005-0.451-1.005-1.004c0-0.255,0.096-0.497,0.27-0.684
				l2.313-2.768c0.341-0.408,1.004-0.468,1.413-0.126c0.022,0.018,0.116,0.113,0.134,0.135l2.339,2.799
				c0.354,0.426,0.298,1.06-0.127,1.414C401.382,217.638,401.154,217.722,400.919,217.722L400.919,217.722z M398.486,213.837
				L398.486,213.837l-2.329,2.786c-0.046,0.156,0.004,0.207,0.067,0.207h4.692c0.029,0,0.054-0.01,0.074-0.027
				c0.041-0.033,0.048-0.116,0.014-0.156l-2.342-2.804l0,0C398.659,213.843,398.49,213.837,398.486,213.837z"/>
		</g>
	</g>
	<g>
		<g>
			<polygon style="fill-rule:evenodd;clip-rule:evenodd;fill:#FFFFFF;" points="315.646,108.922 309.152,108.922 312.399,114.161 
							"/>
			<path style="fill:#FFFFFF;" d="M312.399,114.605c-0.155,0-0.298-0.078-0.38-0.211l-3.247-5.238
				c-0.085-0.137-0.089-0.31-0.01-0.45c0.078-0.142,0.227-0.229,0.39-0.229h6.494c0.162,0,0.31,0.088,0.389,0.229
				c0.079,0.141,0.075,0.313-0.01,0.45l-3.247,5.238C312.697,114.527,312.553,114.605,312.399,114.605z M309.952,109.367
				l2.447,3.948l2.446-3.948H309.952z"/>
		</g>
		<g>
			<path style="fill:#59B2FF;" d="M318.62,106.076c-0.008,0.002-0.015,0.002-0.022,0h-6.495c-0.162,0-0.311-0.088-0.39-0.229
				c-0.079-0.141-0.075-0.314,0.011-0.451l3.247-5.237c0.163-0.264,0.595-0.265,0.758,0l3.186,5.138
				c0.092,0.082,0.151,0.201,0.151,0.335C319.066,105.877,318.866,106.076,318.62,106.076z M312.904,105.185h4.893l-2.447-3.948
				L312.904,105.185z"/>
		</g>
	</g>
	<g>
		<g>
			<polygon style="fill-rule:evenodd;clip-rule:evenodd;fill:#FFFFFF;" points="261.506,252.518 255.012,252.518 258.26,257.757 			
				"/>
			<path style="fill:#FFFFFF;" d="M258.26,258.203c-0.155,0-0.298-0.08-0.379-0.213l-3.248-5.237
				c-0.086-0.137-0.09-0.311-0.011-0.451c0.078-0.141,0.227-0.229,0.39-0.229h6.494c0.162,0,0.31,0.088,0.39,0.229
				c0.078,0.141,0.074,0.314-0.011,0.451l-3.247,5.237C258.557,258.123,258.414,258.203,258.26,258.203z M255.812,252.964
				l2.448,3.948l2.446-3.948H255.812z"/>
		</g>
		<g>
			<path style="fill:#59B2FF;" d="M264.48,249.674c-0.008,0-0.015,0-0.022,0h-6.494c-0.162,0-0.311-0.088-0.389-0.229
				c-0.079-0.143-0.075-0.315,0.01-0.453l3.247-5.238c0.082-0.131,0.225-0.211,0.379-0.211l0,0c0.155,0,0.297,0.08,0.379,0.211
				l3.185,5.14c0.093,0.081,0.151,0.2,0.151,0.334C264.926,249.474,264.726,249.674,264.48,249.674z M258.764,248.781h4.892
				l-2.445-3.947L258.764,248.781z"/>
		</g>
	</g>
</g>
</svg>
